<svg width="245" height="182" viewBox="0 0 245 182" fill="none" xmlns="http://www.w3.org/2000/svg">
<g id="podium">
<g id="Group">
<g id="Group_2">
<g id="Group_3">
<path id="Vector" d="M41.9996 111C41.4497 111 41 110.336 41 109.524V12.4771C41 11.6653 41.4506 11 41.9996 11C42.5494 11 43 11.664 43 12.4771V109.525C43 110.336 42.5494 111 41.9996 111Z" fill="#4D4D4D"/>
</g>
<g id="Group_4">
<path id="Vector_2" d="M90 42H43.2554V13.1931H90L79.1417 27.4629L90 42Z" fill="#E65F28"/>
</g>
</g>
<path id="2" d="M54.6671 36H66.2351V32.592L59.2991 33.024C63.3311 29.832 65.8511 27.432 65.8511 24.264C65.8511 21.456 63.7151 19.848 60.4511 19.848C58.0511 19.848 56.0831 20.664 54.4271 22.152L56.2991 24.624C57.3071 23.64 58.8671 23.064 59.8991 23.064C60.9071 23.064 61.7471 23.496 61.7471 24.48C61.7471 27.096 57.9071 30.888 54.6671 33.696V36Z" fill="white"/>
</g>
<g id="Group_5">
<g id="Group_6">
<g id="Group_7">
<path id="Vector_3" d="M114 100C113.45 100 113 99.336 113 98.5242V1.47715C113 0.665311 113.451 0 114 0C114.549 0 115 0.663991 115 1.47715V98.5255C115 99.336 114.549 100 114 100Z" fill="#4D4D4D"/>
</g>
<g id="Group_8">
<path id="Vector_4" d="M162 31H115.255V2.19312H162L151.142 16.4629L162 31Z" fill="#E6007D"/>
</g>
</g>
<path id="1" d="M132.067 25H136.195V8.584L126.955 12.784L127.603 15.064L132.067 13.936V25Z" fill="white"/>
</g>
<g id="Group_9">
<g id="Group_10">
<g id="Group_11">
<path id="Vector_5" d="M185 130C184.45 130 184 129.336 184 128.524V31.4771C184 30.6653 184.451 30 185 30C185.549 30 186 30.664 186 31.4771V128.525C186 129.336 185.549 130 185 130Z" fill="#4D4D4D"/>
</g>
<g id="Group_12">
<path id="Vector_6" d="M233 61H186.255V32.1931H233L222.142 46.4629L233 61Z" fill="#14A8C6"/>
</g>
</g>
<path id="3" d="M197.355 54.04C198.891 54.88 200.451 55.312 202.827 55.312C206.811 55.312 209.307 53.152 209.307 49.84C209.307 47.128 207.723 45.544 204.459 45.304L208.683 41.344L207.771 39.16H198.723V42.28H204.579L200.547 46.384L201.747 47.992C202.059 47.872 202.539 47.8 203.019 47.8C204.483 47.8 205.347 48.472 205.347 49.816C205.347 51.376 203.907 52.096 202.179 52.096C201.051 52.096 199.803 51.88 198.483 51.232L197.355 54.04Z" fill="white"/>
</g>
<g id="Group 77">
<g id="Group_13">
<path id="Vector_7" d="M167.428 157.301H161.759C161.759 143.628 155.128 132.542 146.95 132.542C146.9 132.542 146.851 132.555 146.801 132.555L143.473 50.4199H131.449V70.5155H119.428V50.4199H107.408V70.5155H95.3887V50.4199H83.3898L79.059 157.301H78.1171C74.1784 157.301 70.9546 162.688 70.9546 169.276V169.288C70.9546 175.858 74.1622 181.234 78.0876 181.258V181.261H78.1171H167.426C171.367 181.261 174.589 175.871 174.589 169.288V169.276C174.59 162.691 171.368 157.301 167.428 157.301Z" fill="#C3996D"/>
</g>
</g>
<g id="Group 78">
<g id="Group_14">
<path id="Vector_8" d="M237.354 163.904H231.681C231.681 153.999 225.047 145.968 216.863 145.968C216.813 145.968 216.764 145.977 216.714 145.977L213.383 86.4783H201.352V101.036H189.323V86.4783H177.295V101.036H165.268V86.4783H153.261L148.927 163.904H147.985C144.043 163.904 140.817 167.806 140.817 172.579V172.588C140.817 177.347 144.027 181.241 147.955 181.259V181.261H147.985H237.353C241.296 181.261 244.52 177.356 244.52 172.588V172.579C244.522 167.808 241.297 163.904 237.354 163.904Z" fill="#C3996D"/>
</g>
</g>
<g id="Group 79">
<g id="Group_15">
<path id="Vector_9" d="M96.4732 161.829H90.804C90.804 150.739 84.1736 141.749 75.9955 141.749C75.9454 141.749 75.8967 141.759 75.8466 141.759L72.5182 75.1458H60.4942V91.4438H48.4732V75.1458H36.4537V91.4438H24.4341V75.1458H12.4352L8.10442 161.829H7.16249C3.22379 161.829 0 166.198 0 171.541V171.551C0 176.879 3.20757 181.239 7.13301 181.259V181.261H7.16249H96.4718C100.412 181.261 103.634 176.889 103.634 171.551V171.541C103.636 166.2 100.413 161.829 96.4732 161.829Z" fill="#C3996D"/>
</g>
</g>
    <text font-family="Mediametrie" font-weight="bold" id="score3" x="175" y="160" fill="white">801</text>
<path id="pseudo2" d="M15.2401 121H16.2411V118.338C16.6591 118.426 17.0661 118.47 17.4511 118.47C19.2551 118.47 20.6081 117.524 20.6081 115.775C20.6081 114.081 19.4751 113.322 17.9901 113.322C17.3411 113.322 16.7471 113.465 16.1531 113.685L15.2401 113.41V121ZM16.2411 114.169C16.4281 114.125 16.9341 114.048 17.6491 114.048C18.7821 114.048 19.5521 114.631 19.5521 115.808C19.5521 117.051 18.7711 117.755 17.3081 117.755C16.9891 117.755 16.6261 117.711 16.2411 117.645V114.169ZM26.1442 121.143V117.282C26.1442 115.973 25.3522 115.379 23.9772 115.379C23.0862 115.379 22.4152 115.632 21.7662 116.083L22.1952 116.688C22.6682 116.369 23.3612 116.116 23.9662 116.116C24.7362 116.116 25.1982 116.457 25.1982 117.249V117.953C24.2412 117.953 22.9102 117.986 21.8982 118.118C21.6122 118.437 21.4362 118.932 21.4362 119.416C21.4362 120.285 22.0082 121.143 23.4602 121.143C24.1532 121.143 24.8022 120.912 25.1982 120.615L26.1442 121.143ZM25.1982 120.098C24.8132 120.252 24.1752 120.428 23.5812 120.428C22.7562 120.428 22.4262 119.856 22.4262 119.284C22.4262 119.097 22.4702 118.899 22.5692 118.723C23.4712 118.569 24.1752 118.481 25.1982 118.36V120.098ZM27.977 123.53L28.923 123.156V120.901C29.308 121.044 29.803 121.143 30.342 121.143C31.915 121.143 33.224 120.12 33.224 118.151C33.224 116.325 31.97 115.379 30.397 115.379C29.836 115.379 29.396 115.478 28.923 115.676L27.977 115.379V123.53ZM28.923 116.094C29.275 116.039 29.638 116.017 29.935 116.017C31.376 116.017 32.234 116.765 32.234 118.239C32.234 119.625 31.486 120.384 30.232 120.384C29.759 120.384 29.319 120.285 28.923 120.142V116.094ZM34.6801 123.53L35.6261 123.156V120.901C36.0111 121.044 36.5061 121.143 37.0451 121.143C38.6181 121.143 39.9271 120.12 39.9271 118.151C39.9271 116.325 38.6731 115.379 37.1001 115.379C36.5391 115.379 36.0991 115.478 35.6261 115.676L34.6801 115.379V123.53ZM35.6261 116.094C35.9781 116.039 36.3411 116.017 36.6381 116.017C38.0791 116.017 38.9371 116.765 38.9371 118.239C38.9371 119.625 38.1891 120.384 36.9351 120.384C36.4621 120.384 36.0221 120.285 35.6261 120.142V116.094ZM45.6843 121.143V117.282C45.6843 115.973 44.8923 115.379 43.5173 115.379C42.6263 115.379 41.9553 115.632 41.3063 116.083L41.7353 116.688C42.2083 116.369 42.9013 116.116 43.5063 116.116C44.2763 116.116 44.7383 116.457 44.7383 117.249V117.953C43.7813 117.953 42.4503 117.986 41.4383 118.118C41.1523 118.437 40.9763 118.932 40.9763 119.416C40.9763 120.285 41.5483 121.143 43.0003 121.143C43.6933 121.143 44.3423 120.912 44.7383 120.615L45.6843 121.143ZM44.7383 120.098C44.3533 120.252 43.7153 120.428 43.1213 120.428C42.2963 120.428 41.9663 119.856 41.9663 119.284C41.9663 119.097 42.0103 118.899 42.1093 118.723C43.0113 118.569 43.7153 118.481 44.7383 118.36V120.098ZM47.5171 121H48.4631V116.325C48.6061 116.314 48.8151 116.314 49.0461 116.314C49.4861 116.314 50.0031 116.336 50.3991 116.413L50.5751 115.412C50.4321 115.39 50.2891 115.379 50.1571 115.379C49.4751 115.379 48.8921 115.588 48.4631 115.918L47.5171 115.379V121ZM55.7712 121.143V117.282C55.7712 115.973 54.9792 115.379 53.6042 115.379C52.7132 115.379 52.0422 115.632 51.3932 116.083L51.8222 116.688C52.2952 116.369 52.9882 116.116 53.5932 116.116C54.3632 116.116 54.8252 116.457 54.8252 117.249V117.953C53.8682 117.953 52.5372 117.986 51.5252 118.118C51.2392 118.437 51.0632 118.932 51.0632 119.416C51.0632 120.285 51.6352 121.143 53.0872 121.143C53.7802 121.143 54.4292 120.912 54.8252 120.615L55.7712 121.143ZM54.8252 120.098C54.4402 120.252 53.8022 120.428 53.2082 120.428C52.3832 120.428 52.0532 119.856 52.0532 119.284C52.0532 119.097 52.0972 118.899 52.1962 118.723C53.0982 118.569 53.8022 118.481 54.8252 118.36V120.098ZM56.977 121H61.399V120.142L58.286 120.307L61.421 116.182V115.522H57.23V116.435L60.453 116.105L56.977 120.813V121ZM62.1547 121H66.5767V120.142L63.4637 120.307L66.5987 116.182V115.522H62.4077V116.435L65.6307 116.105L62.1547 120.813V121ZM68.4324 114.411C68.7954 114.411 69.0814 114.158 69.0814 113.773C69.0814 113.388 68.7954 113.135 68.4324 113.135C68.0804 113.135 67.7944 113.388 67.7944 113.773C67.7944 114.158 68.0804 114.411 68.4324 114.411ZM67.9594 121H68.9054V115.379L67.9594 115.676V121ZM19.8675 134H20.8465L21.6825 131.778H24.9385L25.8075 134H26.8635L23.9265 126.487H22.7605L19.8675 134ZM21.8805 131.228L23.3325 127.18L24.6305 131.008L21.8805 131.228ZM27.9018 134H28.8478V129.402C29.5188 129.237 29.9808 129.149 30.4208 129.149C31.3008 129.149 31.5868 129.545 31.5868 130.337V134H32.5328V130.381C32.5328 129.985 32.4778 129.644 32.3678 129.358C33.0388 129.215 33.5338 129.149 33.9958 129.149C34.9638 129.149 35.2718 129.545 35.2718 130.337V134H36.2178V130.381C36.2178 129.127 35.6788 128.379 34.3698 128.379C33.4678 128.379 32.7418 128.665 32.1478 128.951C31.8728 128.577 31.4328 128.379 30.7948 128.379C30.0138 128.379 29.3538 128.643 28.8368 128.918L27.9018 128.379V134ZM38.5262 127.411C38.8892 127.411 39.1752 127.158 39.1752 126.773C39.1752 126.388 38.8892 126.135 38.5262 126.135C38.1742 126.135 37.8882 126.388 37.8882 126.773C37.8882 127.158 38.1742 127.411 38.5262 127.411ZM38.0532 134H38.9992V128.379L38.0532 128.676V134ZM45.0576 133.054C44.5956 133.296 44.0896 133.472 43.4626 133.472C42.2196 133.472 41.4386 132.526 41.4386 131.261C41.4386 129.974 42.0766 129.16 43.3086 129.16C43.9576 129.16 44.4416 129.27 44.7606 129.49L45.1786 128.797C44.7496 128.511 44.1666 128.379 43.3966 128.379C41.6806 128.379 40.4486 129.435 40.4486 131.261C40.4486 132.933 41.5156 134.143 43.2756 134.143C44.1446 134.143 44.7166 133.934 45.2556 133.571L45.0576 133.054ZM50.8942 134.143V130.282C50.8942 128.973 50.1022 128.379 48.7272 128.379C47.8362 128.379 47.1652 128.632 46.5162 129.083L46.9452 129.688C47.4182 129.369 48.1112 129.116 48.7162 129.116C49.4862 129.116 49.9482 129.457 49.9482 130.249V130.953C48.9912 130.953 47.6602 130.986 46.6482 131.118C46.3622 131.437 46.1862 131.932 46.1862 132.416C46.1862 133.285 46.7582 134.143 48.2102 134.143C48.9032 134.143 49.5522 133.912 49.9482 133.615L50.8942 134.143ZM49.9482 133.098C49.5632 133.252 48.9252 133.428 48.3312 133.428C47.5062 133.428 47.1762 132.856 47.1762 132.284C47.1762 132.097 47.2202 131.899 47.3192 131.723C48.2212 131.569 48.9252 131.481 49.9482 131.36V133.098ZM52.6196 132.636C52.6196 133.659 53.1806 134.143 53.9396 134.143C54.3686 134.143 54.7536 134.077 55.0176 133.978V133.494C54.8526 133.527 54.6766 133.549 54.5006 133.549C54.0056 133.549 53.5656 133.351 53.5656 132.559V125.893L52.6196 126.19V132.636ZM61.4256 134H62.3716V126.674L58.8736 128.5L59.0826 129.039L61.4256 128.148V134Z" fill="white"/>
<path id="pseudo1" d="M90.5424 96H91.5434V93.338C91.9614 93.426 92.3684 93.47 92.7534 93.47C94.5574 93.47 95.9104 92.524 95.9104 90.775C95.9104 89.081 94.7774 88.322 93.2924 88.322C92.6434 88.322 92.0494 88.465 91.4554 88.685L90.5424 88.41V96ZM91.5434 89.169C91.7304 89.125 92.2364 89.048 92.9514 89.048C94.0844 89.048 94.8544 89.631 94.8544 90.808C94.8544 92.051 94.0734 92.755 92.6104 92.755C92.2914 92.755 91.9284 92.711 91.5434 92.645V89.169ZM97.3603 94.636C97.3603 95.659 97.9213 96.143 98.6803 96.143C99.1093 96.143 99.4943 96.077 99.7583 95.978V95.494C99.5933 95.527 99.4173 95.549 99.2413 95.549C98.7463 95.549 98.3063 95.351 98.3063 94.559V87.893L97.3603 88.19V94.636ZM103.217 96.143C105.087 96.143 106.066 94.801 106.066 93.261C106.066 91.721 105.087 90.379 103.217 90.379C101.347 90.379 100.368 91.721 100.368 93.261C100.368 94.801 101.347 96.143 103.217 96.143ZM103.217 95.406C102.007 95.406 101.358 94.526 101.358 93.272C101.358 92.007 102.007 91.116 103.217 91.116C104.427 91.116 105.076 92.007 105.076 93.272C105.076 94.526 104.427 95.406 103.217 95.406ZM107.522 96H108.468V91.402C109.183 91.237 109.711 91.149 110.184 91.149C111.141 91.149 111.493 91.545 111.493 92.337V96H112.439V92.381C112.439 91.127 111.867 90.379 110.558 90.379C109.733 90.379 109.018 90.643 108.468 90.918L107.522 90.379V96ZM114.125 97.837C114.653 98.255 115.401 98.53 116.413 98.53C117.755 98.53 119.02 97.727 119.02 95.945V90.379L118.085 90.676C117.612 90.478 117.172 90.379 116.611 90.379C115.06 90.379 113.817 91.314 113.817 93.206C113.817 95.12 115.06 96.143 116.611 96.143C117.161 96.143 117.678 95.989 118.074 95.769V96.121C118.074 97.265 117.304 97.804 116.193 97.804C115.39 97.804 114.851 97.661 114.345 97.43L114.125 97.837ZM118.074 95.208C117.7 95.351 117.304 95.417 116.776 95.417C115.533 95.417 114.807 94.57 114.807 93.184C114.807 91.721 115.643 91.083 117.073 91.083C117.37 91.083 117.722 91.105 118.074 91.16V95.208ZM121.392 92.964C121.469 91.853 122.063 91.094 123.185 91.094C124.186 91.094 124.725 91.699 124.725 92.7L121.392 92.964ZM125.121 94.834C124.626 95.208 124.054 95.417 123.372 95.417C122.118 95.417 121.436 94.625 121.381 93.382H125.627C125.66 93.162 125.682 92.953 125.682 92.755C125.682 91.237 124.67 90.379 123.185 90.379C121.48 90.379 120.391 91.589 120.391 93.25C120.391 95.296 121.843 96.143 123.273 96.143C124.087 96.143 124.89 95.879 125.429 95.395L125.121 94.834ZM127.039 94.141C127.039 95.395 127.611 96.143 128.92 96.143C129.701 96.143 130.383 95.879 130.9 95.604L131.846 96.143V90.379L130.9 90.676V95.131C130.229 95.296 129.723 95.373 129.294 95.373C128.337 95.373 127.985 94.977 127.985 94.185V90.522H127.039V94.141ZM133.755 96H134.701V91.325C134.844 91.314 135.053 91.314 135.284 91.314C135.724 91.314 136.241 91.336 136.637 91.413L136.813 90.412C136.67 90.39 136.527 90.379 136.395 90.379C135.713 90.379 135.13 90.588 134.701 90.918L133.755 90.379V96ZM99.0705 109H104.868V107.944L100.413 108.296L104.857 102.323V101.487H99.3015V102.411L103.922 102.224L99.0705 108.527V109ZM106.692 105.964C106.769 104.853 107.363 104.094 108.485 104.094C109.486 104.094 110.025 104.699 110.025 105.7L106.692 105.964ZM110.421 107.834C109.926 108.208 109.354 108.417 108.672 108.417C107.418 108.417 106.736 107.625 106.681 106.382H110.927C110.96 106.162 110.982 105.953 110.982 105.755C110.982 104.237 109.97 103.379 108.485 103.379C106.78 103.379 105.691 104.589 105.691 106.25C105.691 108.296 107.143 109.143 108.573 109.143C109.387 109.143 110.19 108.879 110.729 108.395L110.421 107.834ZM112.415 109H113.361V104.402C114.076 104.237 114.604 104.149 115.077 104.149C116.034 104.149 116.386 104.545 116.386 105.337V109H117.332V105.381C117.332 104.127 116.76 103.379 115.451 103.379C114.626 103.379 113.911 103.643 113.361 103.918L112.415 103.379V109ZM121.605 109H126.522V108.054L122.672 108.307C124.784 106.668 126.445 105.084 126.445 103.61C126.445 102.422 125.587 101.674 124.146 101.674C123.167 101.674 122.364 102.158 121.77 102.752L122.221 103.346C122.705 102.928 123.486 102.444 124.179 102.444C125.048 102.444 125.477 103.016 125.477 103.61C125.477 105.227 122.485 107.438 121.605 108.395V109Z" fill="white"/>
<path id="pseudo3" d="M165.521 120.955C164.927 121.23 164.377 121.362 163.684 121.362C161.539 121.362 160.681 119.932 160.681 118.282C160.681 116.632 161.539 115.213 163.552 115.213C164.058 115.213 164.597 115.323 165.169 115.565L165.521 114.74C164.927 114.465 164.245 114.322 163.563 114.322C160.857 114.322 159.625 116.203 159.625 118.282C159.625 120.328 160.813 122.143 163.442 122.143C164.465 122.143 165.059 121.967 165.774 121.615L165.521 120.955ZM171.259 122.143V118.282C171.259 116.973 170.467 116.379 169.092 116.379C168.201 116.379 167.53 116.632 166.881 117.083L167.31 117.688C167.783 117.369 168.476 117.116 169.081 117.116C169.851 117.116 170.313 117.457 170.313 118.249V118.953C169.356 118.953 168.025 118.986 167.013 119.118C166.727 119.437 166.551 119.932 166.551 120.416C166.551 121.285 167.123 122.143 168.575 122.143C169.268 122.143 169.917 121.912 170.313 121.615L171.259 122.143ZM170.313 121.098C169.928 121.252 169.29 121.428 168.696 121.428C167.871 121.428 167.541 120.856 167.541 120.284C167.541 120.097 167.585 119.899 167.684 119.723C168.586 119.569 169.29 119.481 170.313 119.36V121.098ZM173.092 124.53L174.038 124.156V121.901C174.423 122.044 174.918 122.143 175.457 122.143C177.03 122.143 178.339 121.12 178.339 119.151C178.339 117.325 177.085 116.379 175.512 116.379C174.951 116.379 174.511 116.478 174.038 116.676L173.092 116.379V124.53ZM174.038 117.094C174.39 117.039 174.753 117.017 175.05 117.017C176.491 117.017 177.349 117.765 177.349 119.239C177.349 120.625 176.601 121.384 175.347 121.384C174.874 121.384 174.434 121.285 174.038 121.142V117.094ZM180.268 115.411C180.631 115.411 180.917 115.158 180.917 114.773C180.917 114.388 180.631 114.135 180.268 114.135C179.916 114.135 179.63 114.388 179.63 114.773C179.63 115.158 179.916 115.411 180.268 115.411ZM179.795 122H180.741V116.379L179.795 116.676V122ZM182.948 120.823C182.948 121.692 183.52 122.143 184.444 122.143C184.994 122.143 185.522 121.978 185.918 121.813L185.786 121.296C185.566 121.362 185.203 121.439 184.697 121.439C184.224 121.439 183.894 121.153 183.894 120.68V117.215H185.632L185.742 116.39L183.894 116.621V114.784L182.948 115.081V116.665L181.969 116.764V117.215H182.948V120.823ZM191.282 122.143V118.282C191.282 116.973 190.49 116.379 189.115 116.379C188.224 116.379 187.553 116.632 186.904 117.083L187.333 117.688C187.806 117.369 188.499 117.116 189.104 117.116C189.874 117.116 190.336 117.457 190.336 118.249V118.953C189.379 118.953 188.048 118.986 187.036 119.118C186.75 119.437 186.574 119.932 186.574 120.416C186.574 121.285 187.146 122.143 188.598 122.143C189.291 122.143 189.94 121.912 190.336 121.615L191.282 122.143ZM190.336 121.098C189.951 121.252 189.313 121.428 188.719 121.428C187.894 121.428 187.564 120.856 187.564 120.284C187.564 120.097 187.608 119.899 187.707 119.723C188.609 119.569 189.313 119.481 190.336 119.36V121.098ZM193.588 115.411C193.951 115.411 194.237 115.158 194.237 114.773C194.237 114.388 193.951 114.135 193.588 114.135C193.236 114.135 192.95 114.388 192.95 114.773C192.95 115.158 193.236 115.411 193.588 115.411ZM193.115 122H194.061V116.379L193.115 116.676V122ZM195.973 122H196.919V117.402C197.634 117.237 198.162 117.149 198.635 117.149C199.592 117.149 199.944 117.545 199.944 118.337V122H200.89V118.381C200.89 117.127 200.318 116.379 199.009 116.379C198.184 116.379 197.469 116.643 196.919 116.918L195.973 116.379V122ZM203.268 118.964C203.345 117.853 203.939 117.094 205.061 117.094C206.062 117.094 206.601 117.699 206.601 118.7L203.268 118.964ZM206.997 120.834C206.502 121.208 205.93 121.417 205.248 121.417C203.994 121.417 203.312 120.625 203.257 119.382H207.503C207.536 119.162 207.558 118.953 207.558 118.755C207.558 117.237 206.546 116.379 205.061 116.379C203.356 116.379 202.267 117.589 202.267 119.25C202.267 121.296 203.719 122.143 205.149 122.143C205.963 122.143 206.766 121.879 207.305 121.395L206.997 120.834ZM170.474 135H171.475V131.59H174.5V130.655L171.475 131.018V128.323H175.094V127.487H170.474V135ZM176.033 133.141C176.033 134.395 176.605 135.143 177.914 135.143C178.695 135.143 179.377 134.879 179.894 134.604L180.84 135.143V129.379L179.894 129.676V134.131C179.223 134.296 178.717 134.373 178.288 134.373C177.331 134.373 176.979 133.977 176.979 133.185V129.522H176.033V133.141ZM182.749 135H183.695V130.402C184.41 130.237 184.938 130.149 185.411 130.149C186.368 130.149 186.72 130.545 186.72 131.337V135H187.666V131.381C187.666 130.127 187.094 129.379 185.785 129.379C184.96 129.379 184.245 129.643 183.695 129.918L182.749 129.379V135ZM194.842 135H195.788V127.674L192.29 129.5L192.499 130.039L194.842 129.148V135Z" fill="white"/>
<path id="score1" d="M101.066 130H103.474V120.424L98.0838 122.874L98.4618 124.204L101.066 123.546V130ZM109.411 130.182C111.483 130.182 113.009 128.306 113.009 125.324C113.009 122.342 111.483 120.578 109.411 120.578C107.339 120.578 105.855 122.37 105.855 125.324C105.855 128.278 107.339 130.182 109.411 130.182ZM109.411 128.334C108.697 128.334 108.249 127.242 108.249 125.324C108.249 123.784 108.571 122.356 109.411 122.356C110.251 122.356 110.629 123.77 110.629 125.324C110.629 127.242 110.265 128.334 109.411 128.334ZM117.532 130.182C119.604 130.182 121.13 128.306 121.13 125.324C121.13 122.342 119.604 120.578 117.532 120.578C115.46 120.578 113.976 122.37 113.976 125.324C113.976 128.278 115.46 130.182 117.532 130.182ZM117.532 128.334C116.818 128.334 116.37 127.242 116.37 125.324C116.37 123.784 116.692 122.356 117.532 122.356C118.372 122.356 118.75 123.77 118.75 125.324C118.75 127.242 118.386 128.334 117.532 128.334ZM122.279 130H129.027V128.012L124.981 128.264C127.333 126.402 128.803 125.002 128.803 123.154C128.803 121.516 127.557 120.578 125.653 120.578C124.253 120.578 123.105 121.054 122.139 121.922L123.231 123.364C123.819 122.79 124.729 122.454 125.331 122.454C125.919 122.454 126.409 122.706 126.409 123.28C126.409 124.806 124.169 127.018 122.279 128.656V130Z" fill="white"/>
<path id="score2" d="M30.1164 150.86C30.7044 151.07 31.3764 151.182 32.2584 151.182C34.8624 151.182 36.9624 149.348 36.9624 145.904C36.9624 144.154 36.1644 141.578 33.4064 141.578C31.3064 141.578 29.8364 143.02 29.8364 145.092C29.8364 146.982 31.0404 148.046 32.8044 148.046C33.6864 148.046 34.3444 147.78 34.9604 147.276C34.7644 148.494 33.4484 149.474 31.9364 149.474C31.4744 149.474 31.0684 149.418 30.5924 149.292L30.1164 150.86ZM34.8764 146.016C34.6104 146.156 34.0224 146.338 33.5184 146.338C32.5804 146.338 32.0204 145.834 32.0204 144.854C32.0204 143.622 32.7904 143.286 33.3364 143.286C33.7004 143.286 33.9804 143.342 34.1484 143.384C34.5684 144.168 34.8764 144.882 34.8764 146.016ZM39.5255 146.268C38.6435 146.716 37.9015 147.374 37.9015 148.592C37.9015 150.006 38.9235 151.182 41.3735 151.182C43.6275 151.182 45.0835 150.146 45.0835 148.312C45.0835 147.402 44.7475 146.716 43.3895 145.932C44.2435 145.484 44.7195 144.854 44.7195 144.042C44.7195 142.642 43.7255 141.578 41.4435 141.578C39.5815 141.578 38.2935 142.614 38.2935 144.07C38.2935 145.092 38.8115 145.722 39.5255 146.268ZM40.7995 146.828C41.2755 147.01 41.5975 147.136 42.0595 147.388C42.4795 147.612 42.7875 147.962 42.7875 148.424C42.7875 149.138 42.2835 149.558 41.4855 149.558C40.6315 149.558 40.1835 149.11 40.1835 148.298C40.1835 147.752 40.4775 147.178 40.7995 146.828ZM42.1435 145.372C41.6395 145.12 40.5055 144.868 40.5055 144.126C40.5055 143.608 40.8275 143.16 41.6115 143.16C41.9055 143.16 42.0315 143.174 42.3535 143.286C42.5215 143.552 42.5635 143.846 42.5635 144.14C42.5635 144.63 42.4795 145.05 42.1435 145.372ZM47.6465 146.268C46.7645 146.716 46.0225 147.374 46.0225 148.592C46.0225 150.006 47.0445 151.182 49.4945 151.182C51.7485 151.182 53.2045 150.146 53.2045 148.312C53.2045 147.402 52.8685 146.716 51.5105 145.932C52.3645 145.484 52.8405 144.854 52.8405 144.042C52.8405 142.642 51.8465 141.578 49.5645 141.578C47.7025 141.578 46.4145 142.614 46.4145 144.07C46.4145 145.092 46.9325 145.722 47.6465 146.268ZM48.9205 146.828C49.3965 147.01 49.7185 147.136 50.1805 147.388C50.6005 147.612 50.9085 147.962 50.9085 148.424C50.9085 149.138 50.4045 149.558 49.6065 149.558C48.7525 149.558 48.3045 149.11 48.3045 148.298C48.3045 147.752 48.5985 147.178 48.9205 146.828ZM50.2645 145.372C49.7605 145.12 48.6265 144.868 48.6265 144.126C48.6265 143.608 48.9485 143.16 49.7325 143.16C50.0265 143.16 50.1525 143.174 50.4745 143.286C50.6425 143.552 50.6845 143.846 50.6845 144.14C50.6845 144.63 50.6005 145.05 50.2645 145.372Z" fill="white"/>
</g>
</svg>
