<svg width="250" height="250" viewBox="0 0 250 250" fill="none" xmlns="http://www.w3.org/2000/svg">
<g clip-path="url(#clip0_334_163)">
<rect width="250" height="250" rx="125" fill="white"/>
<path d="M184.432 129.876C183.601 129.156 182.539 128.76 181.44 128.761H68.4876C67.3885 128.76 66.326 129.156 65.4951 129.876C51.6181 141.853 43 162.566 43 183.931C43 205.143 51.7208 226.472 66.9326 242.402C74.3219 250.218 83.1504 256.534 92.9337 261.003C102.977 265.613 113.898 268 124.949 268C136 268 146.921 265.613 156.964 261.003C166.752 256.533 175.585 250.218 182.98 242.402C198.192 226.457 206.913 205.143 206.913 183.931C206.927 162.558 198.309 141.853 184.432 129.876Z" fill="#792D0E"/>
<path d="M181.454 135.061C181.454 142.66 156.18 148.813 124.978 148.813C93.7772 148.813 68.5023 142.66 68.5023 135.061C68.5023 127.463 93.7772 121.309 124.978 121.309C156.18 121.309 181.454 127.47 181.454 135.061Z" fill="#F2F2F2"/>
<path d="M157.536 139.645H93.5057C92.29 139.645 91.124 139.162 90.2643 138.303C89.4046 137.443 88.9216 136.277 88.9216 135.061C88.9216 133.845 89.4046 132.679 90.2643 131.82C91.124 130.96 92.29 130.477 93.5057 130.477H157.536C158.752 130.477 159.918 130.96 160.778 131.82C161.638 132.679 162.12 133.845 162.12 135.061C162.12 136.277 161.638 137.443 160.778 138.303C159.918 139.162 158.752 139.645 157.536 139.645Z" fill="#D9D9D9"/>
<path d="M124.993 153.398C109.59 153.398 94.9947 151.931 83.9855 149.239C70.5119 145.96 63.9548 141.318 63.9548 135.061C63.9548 128.805 70.5119 124.169 83.9855 120.891C94.9873 118.206 109.561 116.725 124.993 116.725C140.425 116.725 154.991 118.192 166.001 120.891C179.474 124.169 186.031 128.805 186.031 135.061C186.031 141.318 179.474 145.96 166.001 149.239C154.991 151.923 140.432 153.398 124.993 153.398ZM73.3284 135.061C74.4139 136.205 78.3892 138.677 88.4082 140.848C98.4272 143.019 111.439 144.229 124.993 144.229C138.547 144.229 151.544 143.034 161.585 140.848C171.626 138.662 175.579 136.205 176.658 135.061C175.572 133.924 171.597 131.453 161.585 129.274C151.573 127.096 138.547 125.886 124.993 125.886C111.439 125.886 98.4419 127.089 88.4082 129.267C78.3746 131.445 74.4139 133.954 73.3284 135.061Z" fill="#792D0E"/>
<path d="M111.519 133.616L84.0149 51.0732L83.9708 50.9705C83.9708 50.8751 83.9048 50.7798 83.8682 50.6845L83.7801 50.5157C83.7484 50.4364 83.7091 50.3602 83.6628 50.2884C83.6261 50.215 83.5821 50.149 83.5381 50.0757L83.4354 49.9143C83.3784 49.833 83.3172 49.7546 83.2521 49.6796L83.186 49.5843L82.9807 49.3642L82.8707 49.2395L82.68 49.0708L82.5186 48.9388L82.3646 48.8288L82.1446 48.6748L82.0199 48.6088L81.7631 48.4547L81.6385 48.4034L81.3597 48.2787L81.1984 48.2274C81.1177 48.1916 81.0343 48.1621 80.949 48.1394L80.707 48.0807L80.5236 48.044C80.4282 48.044 80.3329 48.044 80.2376 48H80.0982H79.7975H79.6435H79.3941H79.196H78.9907L78.7413 48.044L78.5873 48.0807L78.2792 48.1687H78.2426L78.1399 48.2127C78.0441 48.2417 77.9509 48.2785 77.8612 48.3227L77.6925 48.4034L77.4651 48.5134L77.2524 48.6454L77.0837 48.7555C77.0024 48.81 76.9241 48.8687 76.849 48.9315L76.761 48.9975L49.2564 71.918C48.3217 72.6961 47.7344 73.8136 47.6237 75.0248C47.5129 76.2359 47.8879 77.4414 48.666 78.3761C49.444 79.3108 50.5616 79.8981 51.7727 80.0088C52.9838 80.1195 54.1894 79.7446 55.124 78.9665L77.4724 60.3441L102.85 136.484C103.154 137.397 103.738 138.191 104.518 138.753C105.299 139.316 106.237 139.617 107.199 139.616C107.698 139.62 108.194 139.541 108.666 139.381C109.803 138.987 110.74 138.162 111.274 137.083C111.808 136.005 111.896 134.759 111.519 133.616Z" fill="#E6007D"/>
<path d="M142.809 139.645C142.025 139.648 141.253 139.449 140.568 139.067C139.883 138.686 139.308 138.135 138.897 137.467C138.486 136.799 138.254 136.037 138.222 135.253C138.19 134.47 138.36 133.692 138.716 132.993L174.655 62.0604C174.925 61.5199 175.3 61.0381 175.756 60.6428C176.213 60.2475 176.744 59.9463 177.318 59.7567C177.891 59.5671 178.497 59.4928 179.099 59.538C179.702 59.5832 180.289 59.7471 180.828 60.0202C181.367 60.2932 181.847 60.6702 182.239 61.1293C182.632 61.5884 182.93 62.1206 183.117 62.6953C183.303 63.27 183.374 63.8759 183.325 64.4781C183.277 65.0803 183.11 65.667 182.833 66.2044L146.894 137.137C146.513 137.893 145.929 138.528 145.207 138.971C144.486 139.414 143.655 139.647 142.809 139.645Z" fill="#FADFD4"/>
<path d="M206.942 115.126L178.499 69.8717C178.055 69.1687 177.43 68.599 176.688 68.2231C175.947 67.8473 175.118 67.6794 174.289 67.7373L120.966 71.5439C119.966 71.6151 119.017 72.0123 118.264 72.6746C117.511 73.337 116.996 74.2279 116.798 75.2109C116.6 76.1938 116.73 77.2147 117.167 78.1169C117.605 79.0192 118.326 79.753 119.221 80.206L200.994 121.661C201.888 122.114 202.907 122.261 203.893 122.08C204.88 121.899 205.78 121.399 206.455 120.657C207.13 119.915 207.543 118.973 207.631 117.974C207.719 116.975 207.477 115.974 206.942 115.126Z" fill="#FF2144"/>
<path d="M126.871 207.196C129.693 207.194 132.495 206.715 135.159 205.781C140.806 203.808 145.698 210.182 142.42 215.169C139.002 220.303 133.684 221.77 126.871 221.77C120.057 221.77 114.747 220.369 111.329 215.169C108.043 210.174 112.942 203.815 118.59 205.781C121.25 206.719 124.05 207.197 126.871 207.196Z" fill="black"/>
<path d="M149.615 181.526C152.848 181.526 155.468 178.905 155.468 175.673C155.468 172.44 152.848 169.82 149.615 169.82C146.383 169.82 143.762 172.44 143.762 175.673C143.762 178.905 146.383 181.526 149.615 181.526Z" fill="black"/>
<path fill-rule="evenodd" clip-rule="evenodd" d="M149.608 174.543C149.608 174.108 149.737 173.683 149.979 173.321C150.22 172.959 150.564 172.677 150.966 172.51C151.368 172.344 151.81 172.3 152.237 172.385C152.664 172.47 153.056 172.68 153.364 172.987C153.672 173.295 153.881 173.687 153.966 174.114C154.051 174.541 154.007 174.983 153.841 175.385C153.674 175.787 153.392 176.131 153.03 176.373C152.669 176.614 152.243 176.744 151.808 176.744C151.224 176.744 150.665 176.512 150.252 176.099C149.839 175.686 149.608 175.127 149.608 174.543Z" fill="white"/>
<path d="M96.3002 181.526C99.5328 181.526 102.153 178.905 102.153 175.673C102.153 172.44 99.5328 169.82 96.3002 169.82C93.0677 169.82 90.4473 172.44 90.4473 175.673C90.4473 178.905 93.0677 181.526 96.3002 181.526Z" fill="black"/>
<path fill-rule="evenodd" clip-rule="evenodd" d="M96.2928 174.543C96.2928 174.108 96.4219 173.683 96.6637 173.321C96.9055 172.959 97.2491 172.677 97.6512 172.51C98.0532 172.344 98.4957 172.3 98.9225 172.385C99.3493 172.47 99.7414 172.68 100.049 172.987C100.357 173.295 100.566 173.687 100.651 174.114C100.736 174.541 100.693 174.983 100.526 175.385C100.36 175.787 100.078 176.131 99.7157 176.373C99.3538 176.614 98.9284 176.744 98.4932 176.744C97.9096 176.744 97.35 176.512 96.9373 176.099C96.5247 175.686 96.2928 175.127 96.2928 174.543Z" fill="white"/>
</g>
<defs>
<clipPath id="clip0_334_163">
<rect width="250" height="250" rx="125" fill="white"/>
</clipPath>
</defs>
</svg>
