<svg width="250" height="250" viewBox="0 0 250 250" fill="none" xmlns="http://www.w3.org/2000/svg">
<g clip-path="url(#clip0_87_86)">
<rect width="250" height="250" rx="125" fill="white"/>
<path d="M235 152.829C235 182.003 223.411 209.982 202.782 230.611C182.153 251.24 154.174 262.829 125 262.829C95.8262 262.829 67.8473 251.24 47.2183 230.611C26.5893 209.982 15 182.003 15 152.829H235Z" fill="#BAFF4B"/>
<path d="M231.009 152.829C230.11 180.345 218.547 206.433 198.765 225.58C178.982 244.726 152.53 255.431 125 255.431C97.4695 255.431 71.0177 244.726 51.2354 225.58C31.4531 206.433 19.8905 180.345 18.9914 152.829H15C15 182.003 26.5893 209.982 47.2183 230.611C67.8473 251.24 95.8262 262.829 125 262.829C154.174 262.829 182.153 251.24 202.782 230.611C223.411 209.982 235 182.003 235 152.829H231.009Z" fill="#416900"/>
<path d="M221.014 153.031C221.014 178.495 210.899 202.917 192.892 220.923C174.886 238.929 150.465 249.045 125 249.045C99.5356 249.045 75.1139 238.929 57.1078 220.923C39.1016 202.917 28.9858 178.495 28.9858 153.031H221.014Z" fill="#E10037"/>
<path d="M51.5142 177.536C52.4882 176.442 51.7116 174.161 49.7797 172.441C47.8478 170.722 45.4921 170.215 44.5182 171.31C43.5442 172.404 44.3208 174.685 46.2527 176.404C48.1846 178.124 50.5403 178.631 51.5142 177.536Z" fill="#5A0A19"/>
<path d="M74.0975 166.423C74.4186 164.994 72.6333 163.375 70.1099 162.809C67.5865 162.242 65.2806 162.941 64.9595 164.37C64.6385 165.8 66.4238 167.418 68.9472 167.985C71.4706 168.552 73.7765 167.852 74.0975 166.423Z" fill="#5A0A19"/>
<path d="M61.8829 198.623C63.9603 197.083 64.937 194.88 64.0643 193.703C63.1917 192.527 60.8002 192.822 58.7229 194.362C56.6455 195.903 55.6688 198.106 56.5415 199.282C57.4141 200.459 59.8056 200.164 61.8829 198.623Z" fill="#5A0A19"/>
<path d="M108.145 181.151C109.823 179.183 110.28 176.817 109.165 175.866C108.05 174.916 105.786 175.741 104.108 177.709C102.43 179.677 101.974 182.043 103.089 182.993C104.203 183.944 106.467 183.119 108.145 181.151Z" fill="#5A0A19"/>
<path d="M118.205 201.263C118.718 198.728 117.97 196.438 116.534 196.147C115.099 195.857 113.519 197.676 113.006 200.211C112.493 202.746 113.241 205.036 114.677 205.327C116.113 205.617 117.692 203.798 118.205 201.263Z" fill="#5A0A19"/>
<path d="M87.1924 195.881C88.3501 194.983 88.0039 192.599 86.4191 190.555C84.8344 188.511 82.6111 187.582 81.4534 188.48C80.2957 189.378 80.6419 191.762 82.2267 193.806C83.8115 195.85 86.0347 196.779 87.1924 195.881Z" fill="#5A0A19"/>
<path d="M157.13 191.136C157.802 188.639 157.201 186.305 155.786 185.924C154.371 185.543 152.68 187.259 152.007 189.757C151.335 192.254 151.936 194.587 153.351 194.968C154.765 195.349 156.457 193.633 157.13 191.136Z" fill="#5A0A19"/>
<path d="M86.8839 218.681C87.5564 216.184 86.9547 213.851 85.5401 213.47C84.1255 213.089 82.4337 214.805 81.7612 217.302C81.0888 219.799 81.6905 222.133 83.105 222.513C84.5196 222.894 86.2115 221.179 86.8839 218.681Z" fill="#5A0A19"/>
<path d="M138.012 179.792C139.434 179.44 140.082 177.119 139.459 174.609C138.836 172.098 137.179 170.349 135.757 170.702C134.335 171.055 133.687 173.376 134.31 175.886C134.933 178.396 136.59 180.145 138.012 179.792Z" fill="#5A0A19"/>
<path d="M120.981 230.116C121.479 227.578 120.718 225.292 119.28 225.01C117.843 224.728 116.273 226.556 115.776 229.094C115.278 231.632 116.039 233.918 117.477 234.2C118.915 234.482 120.484 232.653 120.981 230.116Z" fill="#5A0A19"/>
<path d="M172.977 171.679C173.638 170.372 172.304 168.366 169.996 167.198C167.689 166.031 165.282 166.144 164.62 167.451C163.959 168.758 165.293 170.764 167.601 171.932C169.909 173.1 172.316 172.987 172.977 171.679Z" fill="#5A0A19"/>
<path d="M188.567 198.57C189.239 196.073 188.637 193.74 187.223 193.359C185.808 192.978 184.116 194.694 183.444 197.191C182.771 199.688 183.373 202.022 184.788 202.403C186.202 202.783 187.894 201.068 188.567 198.57Z" fill="#5A0A19"/>
<path d="M152.857 227.136C154.279 226.783 154.927 224.462 154.305 221.952C153.682 219.442 152.025 217.693 150.603 218.045C149.181 218.398 148.533 220.719 149.155 223.229C149.778 225.739 151.435 227.488 152.857 227.136Z" fill="#5A0A19"/>
<path d="M204.406 179.145C205.068 177.838 203.733 175.831 201.425 174.664C199.118 173.496 196.711 173.609 196.049 174.916C195.388 176.223 196.723 178.23 199.03 179.397C201.338 180.565 203.745 180.452 204.406 179.145Z" fill="#5A0A19"/>
<path fill-rule="evenodd" clip-rule="evenodd" d="M156.617 201.55C150.3 208.181 145.498 206.365 137.609 198.998C131.091 192.913 125.729 196.653 124.409 201.896C123.096 196.647 117.734 192.913 111.209 199.01C103.346 206.384 98.5436 208.206 92.2138 201.588C91.5853 208.25 98.3487 214.498 107.3 215.523C115.597 216.472 122.876 212.613 124.409 206.723C125.956 212.6 133.209 216.447 141.532 215.485C150.476 214.442 157.246 208.2 156.617 201.531V201.55Z" fill="black"/>
<path d="M142.82 194.862C144.983 194.869 147.127 194.447 149.127 193.622C151.128 192.798 152.945 191.585 154.475 190.055C156.005 188.525 157.217 186.708 158.042 184.707C158.867 182.707 159.289 180.563 159.282 178.4C159.253 176.018 158.744 173.666 157.786 171.485C153.064 169.448 147.961 168.445 142.82 168.544C137.681 168.537 132.593 169.557 127.853 171.542C126.882 173.719 126.373 176.073 126.357 178.456C126.352 180.62 126.774 182.763 127.599 184.763C128.424 186.763 129.636 188.58 131.166 190.11C132.696 191.64 134.513 192.852 136.513 193.677C138.513 194.503 140.656 194.924 142.82 194.919" fill="white"/>
<path d="M143.568 168.543C142.791 169.648 142.374 170.965 142.374 172.315C142.427 174.066 143.16 175.727 144.417 176.946C145.675 178.165 147.357 178.847 149.109 178.847C150.86 178.847 152.543 178.165 153.8 176.946C155.057 175.727 155.79 174.066 155.844 172.315C155.844 171.686 155.693 171.265 155.693 170.819C151.819 169.345 147.713 168.574 143.568 168.543Z" fill="black"/>
<path d="M103.88 194.862C106.044 194.869 108.187 194.447 110.188 193.622C112.188 192.797 114.005 191.585 115.535 190.055C117.065 188.525 118.278 186.708 119.103 184.707C119.928 182.707 120.349 180.563 120.342 178.4C120.314 176.018 119.805 173.666 118.846 171.485C114.125 169.448 109.022 168.445 103.88 168.544C98.7415 168.537 93.6533 169.557 88.9138 171.542C87.9398 173.718 87.4303 176.073 87.4178 178.456C87.412 180.62 87.8338 182.763 88.6591 184.763C89.4843 186.763 90.6967 188.58 92.2265 190.11C93.7564 191.64 95.5734 192.852 97.5734 193.677C99.5733 194.503 101.717 194.924 103.88 194.919" fill="white"/>
<path d="M104.628 168.543C103.851 169.648 103.434 170.965 103.434 172.315C103.487 174.066 104.22 175.727 105.477 176.946C106.735 178.165 108.417 178.847 110.169 178.847C111.92 178.847 113.603 178.165 114.86 176.946C116.117 175.727 116.85 174.066 116.904 172.315C116.904 171.686 116.753 171.265 116.753 170.819C112.879 169.345 108.773 168.575 104.628 168.543Z" fill="black"/>
<path d="M123.485 137.744C160.389 137.744 191.698 142.917 202.603 150.07L206.714 152.239V155.639C206.714 165.552 169.453 173.572 123.416 173.572C77.3794 173.572 40.1428 165.552 40.1428 155.639L40.2874 151.673L44.3228 150.045C55.2285 142.885 86.5125 137.744 123.416 137.744H123.485Z" fill="#FFE766"/>
<path d="M123.485 134.462C169.453 134.462 206.784 142.634 206.784 152.691C206.784 162.748 169.522 170.92 123.485 170.92C77.4487 170.92 40.187 162.748 40.187 152.691C40.187 142.634 77.4424 134.462 123.485 134.462Z" fill="#FFD700"/>
<path d="M95.7905 106.409C95.7905 107.83 85.2368 150.466 85.3814 151.811C96.0042 161.516 151.381 161.661 161.52 151.811C161.665 150.466 151.111 107.811 151.111 106.409C145.724 90.1168 99.3294 92.3168 95.7214 106.409H95.7905Z" fill="#FFD700"/>
<path d="M86.9336 144.658C86.0159 148.7 85.4502 151.459 85.4502 151.811C96.0731 161.516 151.45 161.661 161.589 151.811C161.664 151.459 161.023 148.7 160.106 144.733C147.496 153.018 99.8571 152.949 86.8645 144.658H86.9336Z" fill="#A90029"/>
</g>
<defs>
<clipPath id="clip0_87_86">
<rect width="250" height="250" rx="125" fill="white"/>
</clipPath>
</defs>
</svg>
