<svg width="250" height="250" viewBox="0 0 250 250" fill="none" xmlns="http://www.w3.org/2000/svg">
<g clip-path="url(#clip0_55_460)">
<rect width="250" height="250" rx="125" fill="white"/>
<path d="M213.345 193.313L234.45 175.2L235 174.731L234.45 174.254L213.843 156.566C210.815 153.339 210.228 150.699 211.313 146.519L220.531 120.273L220.773 119.591L220.04 119.459L193.281 114.429C189.13 113.402 187.033 111.07 186.145 107.095L181.012 79.6907L180.88 78.9573L180.198 79.192L154.531 88.212C150.381 89.07 147.821 89.07 144.14 85.2787L125.477 63.55L125 63L124.531 63.55L105.86 85.2933C103.462 87.8967 101.13 89.0627 97.3607 87.5667L70.3373 78.07L69.648 77.828L69.516 78.5613L64.2213 106.699C63.7593 109.904 63.1727 111.767 58.3547 112.566L30.95 117.699L30.2167 117.831L30.4587 118.513L39.4933 144.129C41.752 149.995 40.4687 150.773 36.6773 154.073L15.55 172.208L15 172.677L15.55 173.154L36.142 190.835C38.8333 193.387 40.1167 195.836 38.672 200.933L29.4687 227.135L29.2267 227.817L29.96 227.956L56.6387 232.965C61.4493 233.911 62.96 236.47 63.8693 240.43L69.0027 267.747L69.142 268.48L69.824 268.238L95.3807 259.262C99.7807 258.147 102.553 258.727 105.442 262.107L123.533 283.154L124.01 283.704L124.479 283.154L142.131 262.621C144.705 260.01 147.499 258.499 152.295 260.061L178.46 269.257L179.149 269.499L179.274 268.766L184.29 242.102C185.221 237.636 186.967 236.125 191.755 234.857L219.072 229.723L219.805 229.584L219.563 228.902L210.573 203.309C209.062 198.857 209.531 196.298 213.345 193.313ZM125 249.193C115.086 249.193 105.268 247.241 96.1087 243.446C86.949 239.652 78.6263 234.091 71.6158 227.081C64.6053 220.07 59.0442 211.748 55.2502 202.588C51.4561 193.428 49.5033 183.611 49.5033 173.697C49.5033 163.782 51.4561 153.965 55.2502 144.805C59.0442 135.646 64.6053 127.323 71.6158 120.312C78.6263 113.302 86.949 107.741 96.1087 103.947C105.268 100.153 115.086 98.2 125 98.2C126.166 98.2 127.325 98.2367 128.469 98.288C148.38 98.8932 167.244 107.346 180.949 121.802C194.654 136.259 202.088 155.547 201.63 175.462C201.172 195.377 192.86 214.304 178.505 228.115C164.151 241.927 144.918 249.504 125 249.193Z" fill="#FFD700"/>
<path d="M129.593 98V248.912C128.403 248.963 127.205 249 126 249C146.377 248.997 165.944 241.273 180.516 227.482C195.089 213.69 203.51 194.925 203.979 175.199C204.449 155.474 196.929 136.353 183.028 121.926C169.126 107.499 149.948 98.912 129.593 98Z" fill="#FFE766"/>
<path d="M132 98.088C130.761 98.0367 129.513 98 128.258 98C106.707 98 86.0388 105.954 70.7999 120.113C55.5611 134.272 47 153.476 47 173.5C47 193.524 55.5611 212.728 70.7999 226.887C86.0388 241.046 106.707 249 128.258 249C129.511 249 130.758 248.971 132 248.912V98.088Z" fill="#FFE766"/>
<path d="M192.709 154.366H189.409C188.083 148.395 184.924 142.988 180.374 138.901C175.824 134.814 170.11 132.251 164.032 131.571C157.953 130.892 151.814 132.129 146.474 135.111C141.134 138.092 136.859 142.668 134.247 148.199C130.705 145.779 127.046 144.642 123.328 144.906C120.541 145.146 117.865 146.106 115.562 147.693C112.868 142.252 108.553 137.782 103.211 134.897C97.8685 132.013 91.7633 130.857 85.7367 131.59C79.7102 132.322 74.0592 134.906 69.5633 138.985C65.0674 143.065 61.9479 148.439 60.6352 154.366H56.9172C56.0977 154.338 55.2808 154.474 54.5153 154.768C53.7498 155.062 53.0514 155.508 52.4616 156.077C51.8718 156.647 51.4027 157.33 51.0824 158.084C50.762 158.839 50.5969 159.651 50.5969 160.471C50.5969 161.291 50.762 162.103 51.0824 162.857C51.4027 163.612 51.8718 164.295 52.4616 164.865C53.0514 165.434 53.7498 165.879 54.5153 166.173C55.2808 166.468 56.0977 166.604 56.9172 166.576H60.5839C62.1237 173.454 66.0887 179.548 71.7534 183.742C77.4181 187.937 84.4036 189.951 91.4318 189.417C98.46 188.883 105.061 185.836 110.027 180.833C114.992 175.831 117.991 169.208 118.473 162.176C119.108 161.186 119.955 160.351 120.954 159.731C121.952 159.11 123.076 158.721 124.245 158.59C126.122 158.436 128.784 158.979 131.534 162.601C132.119 169.586 135.185 176.131 140.179 181.05C145.172 185.969 151.762 188.938 158.754 189.418C165.747 189.898 172.681 187.859 178.3 183.669C183.919 179.479 187.852 173.415 189.387 166.576H192.687C193.506 166.604 194.323 166.468 195.088 166.173C195.854 165.879 196.552 165.434 197.142 164.865C197.732 164.295 198.201 163.612 198.521 162.857C198.842 162.103 199.007 161.291 199.007 160.471C199.007 159.651 198.842 158.839 198.521 158.084C198.201 157.33 197.732 156.647 197.142 156.077C196.552 155.508 195.854 155.062 195.088 154.768C194.323 154.474 193.506 154.338 192.687 154.366H192.709Z" fill="black"/>
<path d="M124.824 221.4C127.646 221.403 130.448 221.881 133.111 222.815C138.757 224.788 143.649 218.415 140.371 213.429C136.953 208.295 131.637 206.829 124.824 206.829C118.011 206.829 112.702 208.229 109.285 213.429C105.999 218.423 110.898 224.781 116.545 222.815C119.204 221.878 122.004 221.399 124.824 221.4Z" fill="#5A0A19"/>
<path d="M56.9762 144.239C52.8109 144.239 49.5916 140.198 49.5916 136.737C49.5916 134.302 50.6769 131.486 52.2169 127.57C52.4149 126.998 52.6642 126.419 52.9502 125.773C53.6104 123.875 54.4019 122.025 55.3189 120.237C55.5441 119.838 55.9177 119.544 56.3586 119.419C56.7994 119.294 57.2718 119.348 57.6729 119.569C57.9517 119.727 58.1824 119.958 58.3402 120.237C59.2569 121.931 59.8876 123.757 60.8336 125.891C63.5322 131.919 64.2876 134.353 64.2876 136.788C64.3462 140.22 61.0756 144.239 56.9762 144.239Z" fill="#14A8C6"/>
<path d="M72.9336 125.473C70.5282 125.898 70.4036 129.396 73.0289 129.521C78.8188 129.602 84.4195 127.46 88.6782 123.537C90.2992 122.144 91.6707 120.485 92.7336 118.631C93.0122 118.195 93.1122 117.669 93.0131 117.162C92.9139 116.655 92.623 116.205 92.201 115.907C91.7789 115.609 91.2581 115.484 90.7468 115.56C90.2356 115.636 89.7731 115.905 89.4556 116.313L89.3456 116.423C85.0601 121.214 79.2725 124.406 72.9336 125.473Z" fill="black"/>
<path d="M156.262 115.734L156.159 115.624C155.856 115.187 155.391 114.889 154.868 114.795C154.345 114.701 153.805 114.818 153.369 115.122C152.932 115.425 152.634 115.889 152.54 116.413C152.446 116.936 152.563 117.475 152.867 117.912C153.937 119.756 155.314 121.405 156.937 122.789C161.188 126.705 166.784 128.835 172.564 128.736C175.189 128.619 175.065 125.128 172.652 124.703C166.335 123.643 160.56 120.483 156.262 115.734Z" fill="black"/>
</g>
<defs>
<clipPath id="clip0_55_460">
<rect width="250" height="250" rx="125" fill="white"/>
</clipPath>
</defs>
</svg>
