<svg width="250" height="250" viewBox="0 0 250 250" fill="none" xmlns="http://www.w3.org/2000/svg">
<g clip-path="url(#clip0_53_40)">
<rect width="250" height="250" rx="125" fill="white"/>
<path d="M136.713 77.685L163.294 127.183C164.2 128.871 165.476 130.333 167.026 131.459C168.577 132.585 170.361 133.346 172.247 133.686L227.536 143.672C229.8 144.081 231.91 145.096 233.643 146.608C235.375 148.121 236.666 150.075 237.377 152.262C238.088 154.45 238.193 156.789 237.68 159.031C237.168 161.274 236.058 163.335 234.468 164.997L195.604 205.577C194.285 206.964 193.296 208.63 192.71 210.451C192.123 212.273 191.955 214.203 192.217 216.099L199.804 271.772C200.114 274.051 199.8 276.372 198.897 278.487C197.994 280.603 196.534 282.434 194.673 283.785C192.812 285.137 190.619 285.96 188.329 286.165C186.038 286.371 183.734 285.952 181.662 284.953L131.063 253.625C129.337 252.794 127.446 252.363 125.531 252.363C123.616 252.363 121.725 252.794 119.999 253.625L69.3946 284.953C67.3227 285.952 65.0189 286.371 62.7279 286.165C60.437 285.96 58.2445 285.137 56.3836 283.785C54.5227 282.434 53.0629 280.603 52.1594 278.487C51.256 276.372 50.9425 274.051 51.2525 271.772L58.8446 216.099C59.1034 214.2 58.9301 212.268 58.3378 210.446C57.7455 208.625 56.7494 206.96 55.4239 205.577L16.532 164.997C14.9418 163.335 13.8317 161.274 13.3195 159.031C12.8074 156.789 12.9124 154.45 13.6234 152.262C14.3344 150.075 15.6248 148.121 17.3575 146.608C19.0901 145.096 21.2003 144.081 23.4637 143.672L78.7817 133.686C80.6664 133.346 82.4498 132.584 83.999 131.458C85.5482 130.332 86.8231 128.871 87.7285 127.183L114.315 77.685C115.405 75.6639 117.021 73.9753 118.993 72.7983C120.964 71.6214 123.218 71 125.514 71C127.81 71 130.064 71.6214 132.035 72.7983C134.007 73.9753 135.623 75.6639 136.713 77.685Z" fill="#EC5874"/>
<path d="M125.497 107.585C130.208 107.585 134.026 103.766 134.026 99.0557C134.026 94.3452 130.208 90.5266 125.497 90.5266C120.787 90.5266 116.968 94.3452 116.968 99.0557C116.968 103.766 120.787 107.585 125.497 107.585Z" fill="#FFC6D4"/>
<path d="M125.497 147.182C132.499 147.182 138.175 141.506 138.175 134.504C138.175 127.503 132.499 121.826 125.497 121.826C118.495 121.826 112.819 127.503 112.819 134.504C112.819 141.506 118.495 147.182 125.497 147.182Z" fill="#F38FA2"/>
<path d="M79.036 258.71C83.7465 258.71 87.5651 254.892 87.5651 250.181C87.5651 245.471 83.7465 241.652 79.036 241.652C74.3255 241.652 70.5068 245.471 70.5068 250.181C70.5068 254.892 74.3255 258.71 79.036 258.71Z" fill="#FFC6D4"/>
<path d="M98.7864 233.428C105.788 233.428 111.464 227.752 111.464 220.75C111.464 213.748 105.788 208.072 98.7864 208.072C91.7845 208.072 86.1084 213.748 86.1084 220.75C86.1084 227.752 91.7845 233.428 98.7864 233.428Z" fill="#F38FA2"/>
<path d="M171.97 258.71C176.68 258.71 180.499 254.892 180.499 250.181C180.499 245.471 176.68 241.652 171.97 241.652C167.259 241.652 163.441 245.471 163.441 250.181C163.441 254.892 167.259 258.71 171.97 258.71Z" fill="#FFC6D4"/>
<path d="M152.219 233.428C159.221 233.428 164.897 227.752 164.897 220.75C164.897 213.748 159.221 208.072 152.219 208.072C145.218 208.072 139.542 213.748 139.542 220.75C139.542 227.752 145.218 233.428 152.219 233.428Z" fill="#F38FA2"/>
<path d="M43.4908 170.947C48.2013 170.947 52.0199 167.128 52.0199 162.418C52.0199 157.707 48.2013 153.888 43.4908 153.888C38.7803 153.888 34.9617 157.707 34.9617 162.418C34.9617 167.128 38.7803 170.947 43.4908 170.947Z" fill="#FFC6D4"/>
<path d="M78.0818 182.823C85.0837 182.823 90.7598 177.147 90.7598 170.145C90.7598 163.143 85.0837 157.467 78.0818 157.467C71.0799 157.467 65.4038 163.143 65.4038 170.145C65.4038 177.147 71.0799 182.823 78.0818 182.823Z" fill="#F38FA2"/>
<path d="M207.509 170.947C212.22 170.947 216.038 167.128 216.038 162.418C216.038 157.707 212.22 153.888 207.509 153.888C202.799 153.888 198.98 157.707 198.98 162.418C198.98 167.128 202.799 170.947 207.509 170.947Z" fill="#FFC6D4"/>
<path d="M172.918 182.823C179.92 182.823 185.596 177.147 185.596 170.145C185.596 163.143 179.92 157.467 172.918 157.467C165.917 157.467 160.24 163.143 160.24 170.145C160.24 177.147 165.917 182.823 172.918 182.823Z" fill="#F38FA2"/>
<path d="M71.0431 133.635C70.5266 133.635 70.0313 133.84 69.6661 134.206C69.3009 134.571 69.0957 135.066 69.0957 135.583C69.0957 136.099 69.3009 136.594 69.6661 136.96C70.0313 137.325 70.5266 137.53 71.0431 137.53H78.8272V133.635H71.0431Z" fill="#BAFF4B"/>
<path d="M180.07 133.635H172.258V137.53H180.07C180.587 137.53 181.082 137.325 181.447 136.96C181.812 136.594 182.017 136.099 182.017 135.583C182.017 135.066 181.812 134.571 181.447 134.206C181.082 133.84 180.587 133.635 180.07 133.635Z" fill="#BAFF4B"/>
<path d="M152.79 125.868C148.939 125.868 145.175 127.01 141.973 129.15C138.771 131.289 136.276 134.33 134.803 137.888C133.329 141.445 132.944 145.36 133.696 149.137C134.447 152.914 136.302 156.383 139.026 159.105C141.749 161.828 145.218 163.681 148.995 164.432C152.772 165.182 156.687 164.796 160.244 163.322C163.801 161.847 166.842 159.351 168.98 156.149C171.119 152.946 172.26 149.182 172.258 145.331C172.252 140.17 170.199 135.222 166.549 131.573C162.899 127.924 157.951 125.873 152.79 125.868Z" fill="#FFEF99"/>
<path d="M98.2899 125.868C94.4391 125.868 90.6748 127.01 87.4731 129.15C84.2714 131.289 81.7761 134.33 80.3027 137.888C78.8294 141.445 78.4441 145.36 79.1958 149.137C79.9474 152.914 81.8022 156.383 84.5255 159.105C87.2488 161.828 90.7183 163.681 94.4952 164.432C98.2721 165.182 102.187 164.796 105.744 163.322C109.301 161.847 112.342 159.351 114.48 156.149C116.619 152.946 117.76 149.182 117.758 145.331C117.752 140.17 115.699 135.222 112.049 131.573C108.399 127.924 103.451 125.873 98.2899 125.868Z" fill="#FFEF99"/>
<path d="M114.654 158.946L100.237 144.529V123.921H96.3426V144.529L81.926 158.946L84.6806 161.695L96.3426 150.033V166.747H100.237V150.033L111.905 161.695L114.654 158.946Z" fill="#82D200"/>
<path d="M169.159 158.946L154.737 144.529V123.921H150.847V144.529L136.425 158.946L139.18 161.695L150.847 150.033V166.747H154.737V150.033L166.404 161.695L169.159 158.946Z" fill="#82D200"/>
<path d="M133.326 145.331H129.431V139.494C129.451 138.971 129.365 138.449 129.178 137.959C128.992 137.469 128.708 137.023 128.345 136.645C127.982 136.268 127.546 135.967 127.064 135.762C126.582 135.557 126.063 135.451 125.539 135.451C125.015 135.451 124.496 135.557 124.014 135.762C123.532 135.967 123.096 136.268 122.733 136.645C122.37 137.023 122.086 137.469 121.9 137.959C121.713 138.449 121.627 138.971 121.647 139.494V145.331H117.758V139.494C117.758 137.43 118.578 135.45 120.038 133.99C121.497 132.531 123.477 131.71 125.542 131.71C127.606 131.71 129.586 132.531 131.046 133.99C132.506 135.45 133.326 137.43 133.326 139.494V145.331Z" fill="#BAFF4B"/>
<path d="M98.2899 168.689C93.6702 168.689 89.1542 167.319 85.313 164.752C81.4719 162.186 78.478 158.538 76.7101 154.27C74.9422 150.001 74.4797 145.305 75.381 140.774C76.2822 136.243 78.5068 132.081 81.7735 128.814C85.0401 125.548 89.2021 123.323 93.733 122.422C98.264 121.521 102.96 121.983 107.229 123.751C111.497 125.519 115.145 128.513 117.711 132.354C120.278 136.195 121.648 140.711 121.648 145.331C121.642 151.524 119.179 157.462 114.8 161.841C110.421 166.22 104.483 168.683 98.2899 168.689ZM98.2899 125.868C94.4391 125.868 90.6749 127.01 87.4732 129.149C84.2714 131.289 81.7761 134.33 80.3028 137.888C78.8294 141.445 78.4442 145.36 79.1958 149.137C79.9475 152.913 81.8023 156.382 84.5255 159.105C87.2488 161.827 90.7183 163.681 94.4952 164.432C98.2721 165.182 102.187 164.796 105.744 163.322C109.301 161.847 112.342 159.351 114.48 156.149C116.619 152.946 117.76 149.182 117.758 145.331C117.752 140.17 115.699 135.222 112.049 131.573C108.399 127.924 103.451 125.872 98.2899 125.868Z" fill="#82D200"/>
<path d="M152.789 168.689C148.169 168.689 143.653 167.319 139.812 164.752C135.971 162.186 132.977 158.538 131.209 154.27C129.442 150.001 128.979 145.305 129.88 140.774C130.781 136.243 133.006 132.081 136.273 128.814C139.539 125.548 143.701 123.323 148.232 122.422C152.763 121.521 157.46 121.983 161.728 123.751C165.996 125.519 169.644 128.513 172.21 132.354C174.777 136.195 176.147 140.711 176.147 145.331C176.139 151.523 173.676 157.46 169.297 161.839C164.919 166.218 158.982 168.681 152.789 168.689ZM152.789 125.868C148.938 125.868 145.174 127.01 141.972 129.149C138.771 131.289 136.275 134.33 134.802 137.888C133.329 141.445 132.943 145.36 133.695 149.137C134.447 152.913 136.302 156.382 139.025 159.105C141.748 161.827 145.218 163.681 148.994 164.432C152.771 165.182 156.686 164.796 160.243 163.322C163.801 161.847 166.841 159.351 168.979 156.149C171.118 152.946 172.259 149.182 172.258 145.331C172.252 140.17 170.198 135.222 166.549 131.573C162.899 127.924 157.95 125.872 152.789 125.868Z" fill="#82D200"/>
<path fill-rule="evenodd" clip-rule="evenodd" d="M97.8215 183.094C105.21 188.891 146.891 188.569 154.268 183.094C147.856 213.581 106.334 214.518 97.8215 183.094Z" fill="white"/>
</g>
<defs>
<clipPath id="clip0_53_40">
<rect width="250" height="250" rx="125" fill="white"/>
</clipPath>
</defs>
</svg>
