<svg width="250" height="250" viewBox="0 0 250 250" fill="none" xmlns="http://www.w3.org/2000/svg">
<g clip-path="url(#clip0_330_115)">
<rect width="250" height="250" rx="125" fill="white"/>
<path fill-rule="evenodd" clip-rule="evenodd" d="M194.691 197.489C197.093 193.57 200.953 190.766 205.423 189.693C209.892 188.621 214.604 189.367 218.523 191.769C222.442 194.171 225.246 198.031 226.319 202.5C227.391 206.97 226.645 211.682 224.243 215.601" fill="#FF2144"/>
<path fill-rule="evenodd" clip-rule="evenodd" d="M183.964 227.889C187.209 224.634 191.614 222.802 196.21 222.795C200.806 222.789 205.217 224.608 208.471 227.853C211.726 231.098 213.558 235.503 213.565 240.099C213.572 244.696 211.752 249.106 208.507 252.361" fill="#FF2144"/>
<path fill-rule="evenodd" clip-rule="evenodd" d="M160.708 247.864C164.823 245.947 169.527 245.72 173.808 247.233C178.088 248.746 181.605 251.879 183.601 255.957C185.597 260.035 185.913 264.733 184.482 269.042C183.051 273.351 179.987 276.926 175.948 279" fill="#FF2144"/>
<path fill-rule="evenodd" clip-rule="evenodd" d="M55.2858 197.489C52.8841 193.57 49.024 190.766 44.5547 189.693C40.0854 188.621 35.373 189.367 31.4542 191.769C27.5355 194.171 24.7313 198.031 23.6586 202.5C22.5859 206.97 23.3326 211.682 25.7343 215.601" fill="#FF2144"/>
<path fill-rule="evenodd" clip-rule="evenodd" d="M68.8857 227.889C67.2853 226.249 65.3756 224.943 63.2669 224.045C61.1583 223.148 58.8928 222.679 56.6013 222.663C54.3099 222.647 52.0381 223.087 49.9176 223.955C47.797 224.823 45.8697 226.104 44.2472 227.722C42.6248 229.34 41.3394 231.264 40.4655 233.382C39.5916 235.501 39.1466 237.771 39.1562 240.063C39.1657 242.354 39.6297 244.621 40.5213 246.732C41.4128 248.843 42.7142 250.756 44.3501 252.361" fill="#FF2144"/>
<path fill-rule="evenodd" clip-rule="evenodd" d="M92.0852 247.865C87.9834 246.047 83.3369 245.891 79.1223 247.429C74.9077 248.966 71.4534 252.078 69.4853 256.11C67.5171 260.141 67.1886 264.779 68.5686 269.047C69.9487 273.316 72.9298 276.884 76.8855 279" fill="#FF2144"/>
<path fill-rule="evenodd" clip-rule="evenodd" d="M210.483 142.898L189.012 174.634C186.108 179.042 182.276 176.754 178.564 174.314C174.86 171.866 182.876 155.586 185.764 151.178L197.028 134.074" fill="#FF2144"/>
<path fill-rule="evenodd" clip-rule="evenodd" d="M241.875 102.579C244.153 105.153 245.902 108.15 247.021 111.4C248.141 114.65 248.61 118.088 248.401 121.519C248.192 124.95 247.309 128.306 245.803 131.396C244.296 134.486 242.197 137.248 239.623 139.526C237.049 141.805 234.051 143.554 230.802 144.673C227.552 145.793 224.114 146.262 220.683 146.053C217.252 145.843 213.896 144.961 210.806 143.455C207.716 141.948 204.953 139.848 202.675 137.275" fill="#E10037"/>
<path fill-rule="evenodd" clip-rule="evenodd" d="M235.099 83.5472C231.514 81.3936 227.54 79.9671 223.403 79.3494C219.267 78.7316 215.05 78.9346 210.992 79.9467C206.934 80.9589 203.115 82.7603 199.754 85.2483C196.392 87.7363 193.553 90.862 191.4 94.447C189.246 98.0321 187.819 102.006 187.202 106.142C186.584 110.279 186.787 114.496 187.799 118.554C188.811 122.612 190.613 126.431 193.101 129.792C195.589 133.154 198.714 135.993 202.299 138.146" fill="#E10037"/>
<path fill-rule="evenodd" clip-rule="evenodd" d="M38.6699 142.898L60.1336 174.634C63.0375 179.042 66.8695 176.754 70.5814 174.314C74.2854 171.866 66.2695 155.586 63.3815 151.178L52.0857 134.059" fill="#FF2144"/>
<path fill-rule="evenodd" clip-rule="evenodd" d="M14.0464 83.5472C17.6314 81.3936 21.6055 79.9671 25.7418 79.3494C29.8781 78.7316 34.0956 78.9346 38.1535 79.9467C42.2113 80.9589 46.0301 82.7603 49.3917 85.2483C52.7533 87.7363 55.592 90.862 57.7457 94.447C59.8993 98.0321 61.3257 102.006 61.9435 106.142C62.5613 110.279 62.3583 114.496 61.3462 118.554C60.334 122.612 58.5326 126.431 56.0446 129.792C53.5566 133.154 50.4309 135.993 46.8459 138.146" fill="#E10037"/>
<path fill-rule="evenodd" clip-rule="evenodd" d="M182.98 143.186C191.611 154.216 196.947 167.462 198.371 181.394C199.795 195.327 197.249 209.378 191.027 221.926C184.806 234.473 175.163 245.005 163.211 252.306C151.259 259.606 137.485 263.377 123.482 263.183C109.478 262.989 95.8141 258.839 84.0686 251.211C72.3231 243.582 62.9747 232.788 57.1027 220.073C51.2308 207.358 49.0748 193.242 50.8837 179.354C52.6926 165.466 58.3926 152.373 67.3256 141.586" fill="#E10037"/>
<path fill-rule="evenodd" clip-rule="evenodd" d="M105.733 157.642C105.733 159.83 104.864 161.929 103.318 163.477C101.771 165.025 99.6734 165.896 97.4852 165.898H95.0853C92.8971 165.896 90.7992 165.025 89.2526 163.477C87.7061 161.929 86.8374 159.83 86.8374 157.642V125.562C86.8374 123.375 87.7064 121.277 89.2531 119.73C90.7999 118.183 92.8978 117.314 95.0853 117.314H97.4852C99.6727 117.314 101.771 118.183 103.317 119.73C104.864 121.277 105.733 123.375 105.733 125.562V157.642Z" fill="#E10037"/>
<path fill-rule="evenodd" clip-rule="evenodd" d="M163.884 157.642C163.884 159.83 163.015 161.929 161.469 163.477C159.922 165.025 157.824 165.896 155.636 165.898H153.236C151.048 165.896 148.95 165.025 147.404 163.477C145.857 161.929 144.988 159.83 144.988 157.642V125.562C144.988 123.375 145.857 121.277 147.404 119.73C148.951 118.183 151.049 117.314 153.236 117.314H155.636C157.824 117.314 159.921 118.183 161.468 119.73C163.015 121.277 163.884 123.375 163.884 125.562V157.642Z" fill="#E10037"/>
<path d="M154.428 134.082C157.954 134.082 160.812 131.224 160.812 127.698C160.812 124.173 157.954 121.314 154.428 121.314C150.903 121.314 148.044 124.173 148.044 127.698C148.044 131.224 150.903 134.082 154.428 134.082Z" fill="black"/>
<path fill-rule="evenodd" clip-rule="evenodd" d="M154.428 126.466C154.428 125.992 154.569 125.528 154.833 125.133C155.096 124.738 155.471 124.431 155.91 124.249C156.348 124.067 156.831 124.02 157.296 124.113C157.762 124.205 158.19 124.434 158.525 124.769C158.861 125.105 159.089 125.533 159.182 125.998C159.275 126.464 159.227 126.946 159.045 127.385C158.864 127.823 158.556 128.198 158.162 128.462C157.767 128.726 157.303 128.866 156.828 128.866C156.192 128.866 155.581 128.613 155.131 128.163C154.681 127.713 154.428 127.103 154.428 126.466Z" fill="white"/>
<path d="M96.2772 134.082C99.8029 134.082 102.661 131.224 102.661 127.698C102.661 124.173 99.8029 121.314 96.2772 121.314C92.7515 121.314 89.8933 124.173 89.8933 127.698C89.8933 131.224 92.7515 134.082 96.2772 134.082Z" fill="black"/>
<path fill-rule="evenodd" clip-rule="evenodd" d="M96.2771 126.466C96.2771 125.992 96.4179 125.528 96.6816 125.133C96.9453 124.738 97.3201 124.431 97.7587 124.249C98.1972 124.067 98.6797 124.02 99.1453 124.113C99.6108 124.205 100.038 124.434 100.374 124.769C100.71 125.105 100.938 125.533 101.031 125.998C101.124 126.464 101.076 126.946 100.894 127.385C100.713 127.823 100.405 128.198 100.01 128.462C99.6158 128.726 99.1517 128.866 98.6771 128.866C98.0406 128.866 97.4301 128.613 96.98 128.163C96.5299 127.713 96.2771 127.103 96.2771 126.466Z" fill="white"/>
<path fill-rule="evenodd" clip-rule="evenodd" d="M96.0852 162.122C103.965 168.306 148.42 167.962 156.292 162.122C149.436 194.634 105.149 195.634 96.0852 162.122Z" fill="black"/>
<path fill-rule="evenodd" clip-rule="evenodd" d="M8.57455 101.835C6.29642 104.409 4.54755 107.406 3.42781 110.656C2.30806 113.906 1.83937 117.344 2.04848 120.775C2.2576 124.206 3.14045 127.562 4.64659 130.652C6.15273 133.741 8.25265 136.504 10.8265 138.782C13.4004 141.06 16.3978 142.809 19.6475 143.929C22.8973 145.049 26.3358 145.518 29.7666 145.308C33.1975 145.099 36.5536 144.216 39.6433 142.71C42.733 141.204 45.4958 139.104 47.7739 136.53" fill="#E10037"/>
<path d="M80.9575 208.457V252.408C85.4475 255.212 90.2039 257.565 95.1573 259.432V208.577L80.9575 208.457Z" fill="#FFD700"/>
<path d="M110.349 208.697V263.576C115.034 264.431 119.779 264.917 124.541 265.032V208.809L110.349 208.697Z" fill="#FFD700"/>
<path d="M52.8857 208.233C53.1897 220.113 58.1657 231.177 66.4055 240.321V208.321L52.8857 208.233Z" fill="#FFD700"/>
<path d="M66.4055 208.345V240.345C70.6692 245.032 75.5672 249.101 80.9573 252.432V208.457L66.4055 208.345Z" fill="white"/>
<path d="M95.1572 208.577V259.432C100.087 261.282 105.174 262.68 110.357 263.608V208.729L95.1572 208.577Z" fill="white"/>
<path d="M169.636 209.177V253.489C175.74 249.801 181.155 245.077 185.636 239.529V209.305L169.636 209.177Z" fill="#FFD700"/>
<path d="M196.083 209.393L185.62 209.305V239.529C192.492 230.857 196.347 220.521 196.083 209.393Z" fill="white"/>
<path d="M140.5 208.945V263.968C145.327 263.227 150.079 262.06 154.7 260.48V209.033L140.5 208.945Z" fill="#FFD700"/>
<path d="M124.541 208.809V265.032H125.885C130.777 265.076 135.666 264.72 140.501 263.968V208.945L124.541 208.809Z" fill="white"/>
<path d="M154.7 209.033V260.456C159.923 258.686 164.932 256.341 169.636 253.464V209.177L154.7 209.033Z" fill="white"/>
</g>
<defs>
<clipPath id="clip0_330_115">
<rect width="250" height="250" rx="125" fill="white"/>
</clipPath>
</defs>
</svg>
