<svg width="250" height="250" viewBox="0 0 250 250" fill="none" xmlns="http://www.w3.org/2000/svg">
<g clip-path="url(#clip0_302_233)">
<rect width="250" height="250" rx="125" fill="white"/>
<path d="M30.3389 197.062C31.2923 206.635 40.2962 221.667 54.2979 235.676C68.2996 249.686 83.347 258.69 92.9122 259.635C87.9811 245.104 79.7727 231.903 68.9222 221.052C58.0716 210.202 44.87 201.993 30.3389 197.062Z" fill="#14A8C6"/>
<path d="M157.092 70.3086C158.046 79.8814 167.05 94.9135 181.051 108.923C195.053 122.932 210.1 131.936 219.666 132.882C214.735 118.351 206.526 105.149 195.676 94.2986C184.825 83.4481 171.623 75.2396 157.092 70.3086Z" fill="#14A8C6"/>
<path d="M219.681 132.882C213.968 132.32 206.31 128.868 198.082 123.209C196.068 187.266 145.097 238.306 83.1313 238.952C87.1768 245.447 90.4587 252.387 92.9118 259.635C92.8426 259.639 92.7733 259.639 92.7042 259.635C110.37 265.669 129.372 266.634 147.558 262.423C165.745 258.212 182.389 248.993 195.605 235.809C208.82 222.625 218.08 206.003 222.336 187.827C226.591 169.651 225.671 150.647 219.681 132.966V132.882Z" fill="#FFD700"/>
<path d="M198.067 123.209C191.974 118.972 186.279 114.19 181.051 108.923L68.9221 221.052C74.3287 226.455 79.0964 232.461 83.1314 238.952C145.097 238.306 196.068 187.266 198.067 123.209Z" fill="#37CDEB"/>
<path d="M51.03 206.843C57.5168 210.881 63.52 215.649 68.9224 221.052L181.051 108.923C175.789 103.696 171.01 98.0033 166.773 91.915C102.708 93.9065 51.6759 144.877 51.03 206.843Z" fill="#FFD700"/>
<path d="M157.054 70.2933C139.372 64.2981 120.364 63.375 102.185 67.6287C84.0048 71.8823 67.3799 81.1427 54.1933 94.3604C41.0068 107.578 31.7858 124.225 27.5751 142.415C23.3645 160.604 24.3325 179.61 30.3694 197.278C30.3694 197.208 30.3694 197.131 30.3694 197.062C37.6199 199.515 44.5629 202.797 51.0606 206.843C51.7065 144.869 102.739 93.9063 166.803 91.9148C161.144 83.6876 157.692 76.0216 157.123 70.3087L157.054 70.2933Z" fill="#37CDEB"/>
<path d="M106.652 149.321C106.272 149.32 105.898 149.222 105.566 149.034C105.235 148.847 104.958 148.578 104.761 148.252C103.792 146.632 102.421 145.291 100.779 144.36C99.1376 143.429 97.2827 142.939 95.3954 142.939C93.5082 142.939 91.6533 143.429 90.0118 144.36C88.3704 145.291 86.9985 146.632 86.0302 148.252C85.7304 148.753 85.2441 149.114 84.6781 149.256C84.1121 149.398 83.5129 149.309 83.0123 149.009C82.5116 148.71 82.1506 148.223 82.0086 147.657C81.8665 147.091 81.9551 146.492 82.2549 145.991C83.613 143.717 85.5381 141.833 87.8421 140.526C90.1461 139.218 92.75 138.53 95.3993 138.53C98.0486 138.53 100.653 139.218 102.956 140.526C105.26 141.833 107.186 143.717 108.544 145.991C108.842 146.494 108.928 147.095 108.784 147.661C108.64 148.228 108.277 148.714 107.775 149.013C107.434 149.213 107.047 149.319 106.652 149.321Z" fill="black"/>
<path d="M166.627 148.552C166.246 148.552 165.872 148.453 165.541 148.266C165.209 148.079 164.932 147.809 164.735 147.483C163.767 145.864 162.395 144.523 160.753 143.591C159.112 142.66 157.257 142.171 155.37 142.171C153.483 142.171 151.628 142.66 149.986 143.591C148.345 144.523 146.973 145.864 146.005 147.483C145.705 147.984 145.218 148.345 144.652 148.487C144.087 148.629 143.487 148.541 142.987 148.241C142.486 147.941 142.125 147.455 141.983 146.889C141.841 146.323 141.929 145.724 142.229 145.223C143.587 142.948 145.512 141.065 147.816 139.757C150.12 138.449 152.724 137.762 155.374 137.762C158.023 137.762 160.627 138.449 162.931 139.757C165.235 141.065 167.16 142.948 168.518 145.223C168.816 145.726 168.903 146.326 168.759 146.893C168.615 147.459 168.251 147.946 167.749 148.245C167.409 148.445 167.021 148.551 166.627 148.552Z" fill="black"/>
<path d="M124.575 196.155C127.534 196.152 130.472 195.651 133.264 194.671C139.184 192.603 144.313 199.285 140.876 204.513C137.293 209.895 131.718 211.433 124.575 211.433C117.432 211.433 111.865 209.965 108.282 204.513C104.837 199.277 109.974 192.611 115.894 194.671C118.683 195.654 121.618 196.156 124.575 196.155Z" fill="black"/>
<path d="M66.4233 129.591C65.488 130.54 64.3749 131.296 63.1475 131.814C61.9201 132.333 60.6026 132.605 59.2701 132.614C57.9377 132.623 56.6165 132.37 55.382 131.868C54.1475 131.367 53.0239 130.627 52.0755 129.691C51.1264 128.756 50.371 127.643 49.8523 126.415C49.3335 125.188 49.0618 123.87 49.0525 122.538C49.0432 121.205 49.2966 119.884 49.7981 118.65C50.2997 117.415 51.0396 116.292 51.9756 115.343L81.6629 85.2484C82.5982 84.2993 83.7113 83.5438 84.9387 83.0251C86.1661 82.5064 87.4836 82.2346 88.8161 82.2253C90.1485 82.2161 91.4697 82.4694 92.7042 82.971C93.9387 83.4726 95.0622 84.2125 96.0106 85.1484C96.9597 86.0837 97.7152 87.1968 98.2339 88.4242C98.7526 89.6516 99.0244 90.9691 99.0337 92.3016C99.043 93.634 98.7896 94.9553 98.288 96.1897C97.7865 97.4242 97.0466 98.5478 96.1106 99.4962L66.4233 129.591Z" fill="#FADFD4"/>
<path d="M96.0107 85.1484C95.0623 84.2125 93.9387 83.4726 92.7042 82.971C91.4697 82.4694 90.1485 82.2161 88.8161 82.2253C87.4836 82.2346 86.1661 82.5064 84.9387 83.0251C83.7113 83.5438 82.5982 84.2993 81.6629 85.2484L51.9756 115.343C51.0396 116.292 50.2997 117.415 49.7981 118.65C49.2966 119.884 49.0432 121.205 49.0525 122.538C49.0618 123.87 49.3335 125.188 49.8523 126.415C50.371 127.643 51.1264 128.756 52.0755 129.691L96.0107 85.1484Z" fill="#FADFD4"/>
<path d="M73.9589 93.0965L59.7087 107.542L74.1542 121.792L88.4044 107.347L73.9589 93.0965Z" fill="#F09F7E"/>
<path d="M74.0047 104.041C75.406 104.041 76.542 102.905 76.542 101.503C76.542 100.102 75.406 98.9658 74.0047 98.9658C72.6033 98.9658 71.4673 100.102 71.4673 101.503C71.4673 102.905 72.6033 104.041 74.0047 104.041Z" fill="#E65F28"/>
<path d="M79.9637 109.922C81.365 109.922 82.501 108.786 82.501 107.385C82.501 105.984 81.365 104.848 79.9637 104.848C78.5623 104.848 77.4263 105.984 77.4263 107.385C77.4263 108.786 78.5623 109.922 79.9637 109.922Z" fill="#E65F28"/>
<path d="M68.1223 110C69.5237 110 70.6597 108.864 70.6597 107.462C70.6597 106.061 69.5237 104.925 68.1223 104.925C66.721 104.925 65.585 106.061 65.585 107.462C65.585 108.864 66.721 110 68.1223 110Z" fill="#E65F28"/>
<path d="M74.0813 115.881C75.4827 115.881 76.6187 114.745 76.6187 113.344C76.6187 111.943 75.4827 110.807 74.0813 110.807C72.68 110.807 71.5439 111.943 71.5439 113.344C71.5439 114.745 72.68 115.881 74.0813 115.881Z" fill="#E65F28"/>
</g>
<defs>
<clipPath id="clip0_302_233">
<rect width="250" height="250" rx="125" fill="white"/>
</clipPath>
</defs>
</svg>
