<svg width="250" height="250" viewBox="0 0 250 250" fill="none" xmlns="http://www.w3.org/2000/svg">
<g clip-path="url(#clip0_300_187)">
<rect width="250" height="250" rx="125" fill="white"/>
<path d="M174.647 133.23C176.404 128.566 177.764 123.761 178.713 118.869C179.71 113.679 180.309 108.421 180.507 103.14C180.717 97.6786 180.486 92.2096 179.816 86.7857C179.137 81.202 177.953 75.6913 176.279 70.3215C174.356 64.1527 171.55 58.295 167.948 52.9307C160.653 42.3198 150.3 35.3414 136.799 35.0031C124.414 34.8878 112.206 37.9486 101.341 43.8934C89.407 50.3383 79.727 60.275 73.5963 72.3731C71.0743 77.2945 69.0849 82.4713 67.6622 87.8152C66.2985 92.9304 65.3589 98.1494 64.8532 103.419C64.8532 103.853 64.7649 104.294 64.7061 104.721C64.3237 109.03 64.1399 114.059 64.1914 119.574C64.1914 124.553 64.3384 129.928 64.6546 135.62C64.9488 140.863 65.39 146.378 65.9047 152.047C66.3974 157.341 67.0151 162.768 67.6989 168.283C68.3828 173.798 69.1696 179.313 70.0741 184.858C70.9785 190.402 71.9198 195.807 73.0154 201.219C74.1258 206.911 75.3097 212.529 76.6186 217.97C78.001 223.713 79.4717 229.265 81.0306 234.537C82.8322 240.626 84.7588 246.347 86.7957 251.59C89.049 257.529 91.8273 263.255 95.0977 268.701C98.7743 274.584 102.657 278.842 106.819 280.82C122.21 288.136 140.108 285.335 151.763 276.408C156.708 272.725 160.476 267.684 162.609 261.899C163.456 259.438 163.965 256.872 164.124 254.274C164.278 251.833 164.367 249.016 164.403 245.854C164.462 241.185 164.455 235.78 164.403 229.89C164.403 224.816 164.403 219.331 164.403 213.624C164.462 208.477 164.55 203.138 164.712 197.712C164.874 192.285 165.146 186.954 165.55 181.571C165.896 176.497 173.492 141.716 174.11 136.759" fill="#E65F28"/>
<path d="M85.6853 164.401C84.5296 164.242 83.4554 163.716 82.6213 162.901C81.7872 162.085 81.2373 161.023 81.0527 159.871C73.611 113.287 117.775 83.6973 126.702 78.2485C130.622 75.8513 134.946 78.7632 138.277 81.5796C151.469 92.7346 172.33 124.112 156.785 163.062C156.223 164.36 155.177 165.388 153.87 165.927C152.562 166.466 151.096 166.474 149.783 165.949C148.47 165.425 147.412 164.409 146.836 163.117C146.26 161.826 146.21 160.361 146.696 159.033C161.771 121.258 136.931 94.323 130.085 88.9624C118.864 96.3158 85.9059 121.42 91.7813 158.172C91.9136 159.01 91.8485 159.866 91.5913 160.673C91.3341 161.481 90.8919 162.217 90.2998 162.824C89.7077 163.43 88.9822 163.89 88.1811 164.166C87.3799 164.442 86.5253 164.528 85.6853 164.415V164.401Z" fill="#F5BFA9"/>
<path d="M128.828 88.2784C127.55 88.1025 126.376 87.4777 125.517 86.5158C124.657 85.5539 124.168 84.3176 124.136 83.0281L123.592 60.1664C123.558 58.7271 124.097 57.3332 125.091 56.2914C126.084 55.2495 127.451 54.645 128.89 54.6109C130.329 54.5768 131.723 55.1158 132.765 56.1094C133.807 57.103 134.412 58.4697 134.446 59.909L134.99 82.7707C135.007 83.4831 134.884 84.1919 134.628 84.8566C134.371 85.5213 133.986 86.1289 133.494 86.6446C133.002 87.1603 132.414 87.5739 131.762 87.8618C131.11 88.1497 130.408 88.3063 129.695 88.3225C129.405 88.33 129.115 88.3153 128.828 88.2784Z" fill="#F5BFA9"/>
<path d="M121.621 107.949C118.318 107.927 115.128 109.15 112.687 111.375C111.362 112.568 110.315 114.035 109.618 115.675C108.92 117.315 108.59 119.088 108.65 120.869V121.994L113.062 121.876V120.751C113.02 119.511 113.248 118.276 113.732 117.133C114.216 115.99 114.943 114.966 115.863 114.133C117.431 112.704 119.475 111.912 121.595 111.912C123.716 111.912 125.76 112.704 127.327 114.133C128.243 114.97 128.967 115.994 129.451 117.136C129.934 118.278 130.166 119.511 130.129 120.751V121.876L134.541 121.994V120.869C134.596 119.085 134.26 117.311 133.556 115.671C132.852 114.031 131.798 112.565 130.467 111.375C128.057 109.157 124.897 107.933 121.621 107.949Z" fill="black"/>
<path d="M172.676 122.545C174.919 123.031 177.169 123.553 179.389 124.075C179.811 120.104 180.233 116.128 180.654 112.148L173.845 110.589C173.455 114.596 173.066 118.567 172.676 122.545Z" fill="black"/>
<path d="M174.727 122.155C173.066 134.656 166.778 143.591 154.138 142.061C141.696 140.465 126.122 121.273 125.952 112.898C126.019 96.7201 143.681 94.9112 157.918 96.7201C172.154 98.529 176.353 109.802 174.727 122.155Z" fill="black"/>
<path d="M153.829 137.237C143.63 135.936 130.791 119.648 130.695 113.706C130.791 108.228 133.335 104.61 138.784 102.625C143.02 101.095 148.946 100.64 156.8 101.515C162.05 102.14 165.859 104.456 168.014 108.199C169.962 111.589 170.587 116.177 169.933 121.494C169.279 126.81 167.587 131.002 165.109 133.678C162.381 136.649 158.631 137.826 153.829 137.237Z" fill="#534747"/>
<path d="M70.3681 122.545C68.2944 123.031 66.2208 123.553 64.1765 124.075L63 112.148L69.2871 110.589C69.6475 114.596 70.0004 118.567 70.3681 122.545Z" fill="black"/>
<path d="M68.3458 122.155C70.0077 134.656 76.2948 143.591 88.972 142.061C101.414 140.465 116.988 121.273 117.15 112.898C117.091 96.7201 99.4286 94.9112 85.1924 96.7201C70.9562 98.529 66.6839 109.802 68.3458 122.155Z" fill="black"/>
<path d="M89.2001 137.237C99.3993 135.936 112.231 119.648 112.334 113.706C112.231 108.228 109.694 104.61 104.245 102.625C100.01 101.095 94.0828 100.64 86.2294 101.515C80.9864 102.14 77.17 104.456 75.0228 108.199C73.0668 111.589 72.4491 116.177 73.0962 121.494C73.7433 126.81 75.4419 131.002 77.92 133.678C80.6628 136.649 84.4425 137.826 89.2001 137.237Z" fill="#534747"/>
<path d="M117.695 218.191C116.533 218.191 115.599 217.455 115.606 216.625C115.614 215.794 116.577 215.154 117.746 215.154C120.202 215.198 122.224 213.786 122.254 212.007C122.283 210.227 120.305 208.749 117.842 208.712C116.68 208.712 115.746 207.977 115.761 207.146C115.775 206.315 116.724 205.639 117.893 205.675C120.349 205.719 122.371 204.3 122.401 202.528C122.43 200.756 120.452 199.271 117.989 199.234C116.827 199.234 115.893 198.498 115.908 197.668C115.922 196.837 116.878 196.153 118.04 196.197C122.827 196.278 126.673 199.138 126.614 202.616C126.614 204.514 125.394 206.197 123.533 207.315C125.357 208.499 126.475 210.257 126.475 212.117C126.423 215.514 122.482 218.264 117.695 218.191Z" fill="black"/>
<path d="M157.506 229.111C173.751 229.111 186.919 215.942 186.919 199.697C186.919 183.452 173.751 170.283 157.506 170.283C141.261 170.283 128.092 183.452 128.092 199.697C128.092 215.942 141.261 229.111 157.506 229.111Z" fill="#FFC6D4"/>
<path d="M170.006 178.585C170.725 179.197 171.356 179.905 171.882 180.688C172.029 180.943 172.076 181.243 172.014 181.53C171.951 181.817 171.783 182.07 171.543 182.24C171.438 182.329 171.315 182.395 171.183 182.435C171.051 182.475 170.912 182.489 170.775 182.474C170.638 182.46 170.505 182.418 170.385 182.351C170.264 182.285 170.158 182.194 170.073 182.086C168.917 180.451 167.278 179.221 165.386 178.568C163.494 177.915 161.445 177.872 159.528 178.446C159.399 178.49 159.261 178.506 159.125 178.492C158.989 178.478 158.857 178.435 158.74 178.365C158.622 178.295 158.521 178.2 158.444 178.087C158.367 177.974 158.315 177.845 158.293 177.71C158.254 177.415 158.323 177.115 158.486 176.866C158.649 176.616 158.896 176.433 159.182 176.35C161.031 175.797 162.987 175.712 164.876 176.102C166.766 176.492 168.529 177.346 170.006 178.585Z" fill="white"/>
</g>
<defs>
<clipPath id="clip0_300_187">
<rect width="250" height="250" rx="125" fill="white"/>
</clipPath>
</defs>
</svg>
