<svg width="250" height="250" viewBox="0 0 250 250" fill="none" xmlns="http://www.w3.org/2000/svg">
<g clip-path="url(#clip0_297_150)">
<rect width="250" height="250" rx="125" fill="white"/>
<path d="M138.125 203.487L138.181 261.357C137.71 268.402 135.139 275.048 131.306 278.719C126.634 283.227 120.126 282.995 115.471 278.607C111.574 274.881 109.083 268.298 108.62 261.197V203.455" fill="#FFEF99"/>
<path d="M179.5 79.5C177.168 71.6041 175.906 65.2287 169.642 60.7376C164.191 56.749 158.126 54.316 151.854 52.3776C131.727 46.7936 107.443 47.9184 89.1282 57.3633C81.076 61.4316 73.2953 69.5363 73 79.1088L73.1277 206H179.944L180 204.405L179.5 79.5Z" fill="#FFC6D4"/>
<path d="M138.75 203.758C136.468 203.942 134.338 202.665 133.811 200.718C132.056 194.439 121.619 194.519 120.016 200.822C119.521 202.769 117.399 204.077 115.141 203.942H114.59C107.409 203.942 104.808 212.168 111.008 215.303C111.464 215.501 111.876 215.787 112.22 216.145C112.564 216.503 112.833 216.927 113.011 217.391C113.189 217.854 113.274 218.349 113.258 218.845C113.243 219.342 113.129 219.83 112.923 220.282C110.082 226.25 118.508 231.452 124.157 227.184C125.035 226.54 126.094 226.188 127.184 226.178C128.273 226.168 129.338 226.5 130.229 227.128C135.877 231.309 144.303 225.987 141.311 220.043C141.092 219.594 140.967 219.107 140.941 218.608C140.915 218.11 140.99 217.612 141.162 217.143C141.333 216.675 141.597 216.246 141.938 215.882C142.279 215.518 142.69 215.226 143.146 215.024C149.441 211.697 146.338 203.2 138.766 203.766L138.75 203.758ZM127.189 216.189C124.627 216.189 122.561 214.402 122.561 212.2C122.561 209.998 124.627 208.21 127.189 208.21C129.75 208.21 131.816 209.99 131.816 212.2C131.816 214.41 129.71 216.189 127.189 216.189Z" fill="#E6007D"/>
<path d="M90.6062 179.024C88.2126 179.184 86.1939 177.931 85.6673 175.984C83.9359 169.809 73.5078 169.705 71.8722 176.096C71.3775 178.035 69.311 179.287 66.9972 179.208C59.6886 178.593 56.3216 187.186 62.8641 190.553C63.3208 190.75 63.7339 191.035 64.0794 191.393C64.425 191.751 64.6961 192.173 64.8772 192.636C65.0583 193.099 65.1457 193.594 65.1343 194.091C65.123 194.588 65.013 195.078 64.8109 195.532C63.263 198.779 65.0822 202.641 69.4386 203.702C71.6481 202.253 74.1582 201.326 76.779 200.99C79.5237 195.955 85.6673 192.412 92.9519 193.162C93.0537 192.556 93.2967 191.983 93.6613 191.488C94.0258 190.993 94.5016 190.591 95.0503 190.314C101.369 186.931 98.0424 178.41 90.6062 179.024ZM79.0051 191.455C76.4439 191.455 74.3775 189.676 74.3775 187.466C74.3775 185.256 76.4439 183.476 79.0051 183.476C81.5663 183.476 83.6328 185.264 83.6328 187.466C83.6328 189.668 81.5663 191.455 79.0051 191.455Z" fill="#FFD700"/>
<path d="M108.902 194.798C106.652 194.99 104.489 193.681 103.963 191.766C102.207 185.479 91.7792 185.559 90.1755 191.87C89.6808 193.817 87.5185 195.117 85.3005 194.99C77.7366 194.591 74.7446 203.104 81.1276 206.359C81.5836 206.556 81.9957 206.842 82.3397 207.201C82.6837 207.559 82.9527 207.983 83.131 208.446C83.3094 208.91 83.3934 209.404 83.3782 209.901C83.363 210.398 83.2489 210.886 83.0425 211.338C80.2021 217.274 88.6276 222.508 94.2765 218.232C95.1565 217.587 96.2166 217.235 97.3074 217.225C98.3982 217.215 99.4646 217.547 100.356 218.176C101.927 219.28 103.854 219.755 105.758 219.508C104.306 212.327 108.806 206.487 115.38 204.093C118.835 199.458 114.455 194.375 108.902 194.798ZM97.3005 207.261C94.7393 207.261 92.6728 205.474 92.6728 203.271C92.6728 201.069 94.7393 199.282 97.3005 199.282C99.8617 199.282 101.928 201.069 101.928 203.271C101.928 205.474 99.8617 207.261 97.3005 207.261Z" fill="#E10037"/>
<path d="M82.9865 155.551C80.6886 156.069 78.4466 155.128 77.6328 153.317C74.8881 147.357 64.6355 149.072 63.9972 155.559C63.8057 157.553 61.8748 159.181 59.6567 159.389C52.037 160.186 50.5529 169.067 57.3268 171.237C58.296 171.494 59.1239 172.124 59.6294 172.99C60.1348 173.856 60.2766 174.886 60.0237 175.857C59.7625 176.726 59.7327 177.648 59.937 178.532C60.1413 179.417 60.5727 180.233 61.1886 180.899C63.7726 178.41 67.0541 176.768 70.5955 176.192C75.7418 175.522 81.1514 176.99 84.7737 180.181C88.8828 178.482 90.2233 174.285 88.0291 171.261C87.7468 170.853 87.549 170.392 87.4475 169.906C87.3459 169.421 87.3425 168.92 87.4377 168.432C87.5329 167.945 87.7247 167.482 88.0017 167.071C88.2786 166.659 88.6351 166.307 89.0503 166.035C94.8429 161.702 90.1674 153.811 82.9865 155.583V155.551ZM73.412 169.633C70.8827 170.032 68.5609 168.588 68.2258 166.442C67.8907 164.295 69.646 162.173 72.2152 161.774C74.7844 161.375 77.0663 162.819 77.4094 164.966C77.7525 167.112 75.9413 169.242 73.412 169.633Z" fill="#E65F28"/>
<path d="M184.5 190.234C182.258 189.532 180.782 187.625 180.989 185.623C181.62 179.24 171.902 175.418 168.088 180.74C166.931 182.375 164.537 182.822 162.423 181.889C155.816 178.697 149.569 185.511 154.444 190.976C154.824 191.386 155.115 191.869 155.299 192.396C155.483 192.924 155.556 193.483 155.513 194.04C161.465 196.003 166.316 200.902 167.234 206.806C169.757 208.116 171.93 210.012 173.569 212.335C178.213 213.077 181.396 209.942 181.021 206.311C180.983 205.818 181.044 205.322 181.201 204.853C181.357 204.384 181.606 203.951 181.932 203.579C182.259 203.207 182.656 202.905 183.101 202.689C183.546 202.473 184.03 202.348 184.524 202.322C191.705 201.46 191.633 192.333 184.476 190.226L184.5 190.234ZM169.197 197.639C166.803 196.713 165.519 194.303 166.316 192.245C167.114 190.186 169.691 189.269 172.077 190.194C174.463 191.12 175.747 193.522 174.949 195.588C174.152 197.655 171.582 198.564 169.197 197.639Z" fill="#FFD700"/>
<path d="M191.769 162.811C189.503 162.277 187.899 160.418 187.987 158.415C188.234 152.088 178.34 148.665 174.822 154.306C173.761 156.005 171.351 156.636 169.237 155.782C162.247 153.013 156.718 160.274 161.841 165.356C162.592 166.021 163.048 166.957 163.109 167.958C163.171 168.959 162.832 169.943 162.168 170.694C159.614 173.423 160.508 177.596 163.899 179.854C166.013 178.489 168.407 177.616 170.903 177.298C173.4 176.981 175.936 177.227 178.325 178.019C181.764 179.22 184.802 181.352 187.101 184.178C187.909 183.632 188.548 182.87 188.943 181.978C189.338 181.086 189.474 180.101 189.335 179.136C189.264 178.644 189.292 178.143 189.418 177.663C189.544 177.182 189.766 176.732 190.069 176.339C190.373 175.946 190.753 175.618 191.186 175.375C191.619 175.131 192.097 174.978 192.591 174.923C199.668 173.662 199.053 164.463 191.793 162.843L191.769 162.811ZM176.912 171.141C174.519 170.343 173.051 168.029 173.721 165.931C174.391 163.832 176.912 162.739 179.346 163.537C181.779 164.335 183.208 166.649 182.537 168.755C181.867 170.862 179.354 171.939 176.912 171.141Z" fill="#E10037"/>
<path d="M166.803 199.123C164.593 198.548 163.005 196.617 163.141 194.631C163.54 188.12 153.67 184.769 150.08 190.202C148.971 191.878 146.537 192.413 144.447 191.543C139.739 189.596 134.146 192.245 135.231 197.671C141.032 202.226 143.29 209.639 139.404 215.838C141.217 216.822 143.347 217.046 145.324 216.461C146.368 216.14 147.485 216.155 148.519 216.505C149.553 216.854 150.45 217.52 151.085 218.407C155.074 224.216 164.753 221.942 163.851 215.351C163.794 214.859 163.836 214.36 163.975 213.884C164.113 213.408 164.346 212.964 164.659 212.579C164.973 212.195 165.36 211.877 165.798 211.645C166.236 211.412 166.716 211.27 167.21 211.226C174.287 210.133 174.08 201.07 166.779 199.123H166.803ZM151.723 207.101C149.33 206.304 147.942 203.91 148.668 201.812C149.394 199.713 151.931 198.716 154.348 199.562C156.766 200.407 158.138 202.753 157.412 204.851C156.686 206.95 154.149 207.915 151.723 207.046V207.101Z" fill="#E65F28"/>
<path d="M82.6706 150.101L84.6972 150.013C88.1012 149.818 91.3047 148.339 93.6619 145.876C96.019 143.412 97.3545 140.146 97.3994 136.737V102.372C97.4399 98.686 98.8787 95.1526 101.425 92.4866C103.971 89.8205 107.434 88.2207 111.115 88.0106C112.887 87.9169 114.66 88.1869 116.323 88.804C117.987 89.421 119.507 90.372 120.79 91.5985C122.072 92.825 123.09 94.3011 123.781 95.9357C124.472 97.5704 124.821 99.3291 124.806 101.104V109.489C124.794 111.133 125.119 112.762 125.759 114.276C126.4 115.789 127.343 117.156 128.531 118.292C129.719 119.428 131.127 120.309 132.668 120.881C134.209 121.452 135.851 121.703 137.493 121.617L139.519 121.521C142.922 121.326 146.125 119.847 148.481 117.383C150.837 114.919 152.17 111.653 152.213 108.245V99.875C152.254 96.19 153.691 92.6577 156.236 89.9918C158.78 87.326 162.242 85.7253 165.921 85.5133C167.693 85.4196 169.466 85.6896 171.131 86.3065C172.795 86.9235 174.315 87.8744 175.599 89.1008C176.882 90.3272 177.9 91.8031 178.592 93.4378C179.284 95.0725 179.634 96.8315 179.62 98.6064V84.4441C179.675 77.3461 178.277 70.3121 175.512 63.7744C172.747 57.2368 168.675 51.3337 163.544 46.4283C158.414 41.5229 152.334 37.7187 145.679 35.2498C139.024 32.7808 131.935 31.6993 124.846 32.0717C94.6946 33.444 70.0163 59.2552 70.0004 89.4388V137.981C69.9872 139.624 70.3102 141.251 70.9494 142.764C71.5887 144.277 72.5307 145.643 73.7175 146.778C74.9043 147.913 76.3108 148.794 77.8505 149.365C79.3902 149.937 81.0306 150.187 82.6706 150.101Z" fill="#FF547E"/>
<path d="M129.038 157C118.511 157 113.009 152.012 112.419 151.438C111.982 151.046 111.631 150.574 111.388 150.049C111.144 149.525 111.013 148.959 111.001 148.385C110.989 147.811 111.097 147.241 111.318 146.708C111.54 146.174 111.871 145.689 112.291 145.28C112.711 144.872 113.212 144.548 113.765 144.328C114.317 144.108 114.911 143.997 115.509 144C116.107 144.004 116.699 144.122 117.249 144.348C117.799 144.575 118.296 144.904 118.711 145.318C118.942 145.524 122.323 148.378 129.038 148.378C135.752 148.378 139.237 145.41 139.404 145.318C140.263 144.542 141.405 144.12 142.584 144.143C143.764 144.166 144.887 144.632 145.712 145.44C146.537 146.241 147 147.321 147 148.447C147 149.573 146.537 150.653 145.712 151.453C145.074 152.012 139.564 157 129.038 157Z" fill="#DF1F32"/>
<circle cx="106.5" cy="101.5" r="7.5" fill="black"/>
<circle cx="150.75" cy="101.5" r="7.5" fill="black"/>
</g>
<defs>
<clipPath id="clip0_297_150">
<rect width="250" height="250" rx="125" fill="white"/>
</clipPath>
</defs>
</svg>
