<svg width="250" height="250" viewBox="0 0 250 250" fill="none" xmlns="http://www.w3.org/2000/svg">
<g clip-path="url(#clip0_295_104)">
<rect width="250" height="250" rx="125" fill="white"/>
<path d="M214.759 69.0608C199.166 69.0608 186.513 81.2877 186.513 96.3708V158.674C186.513 166.091 180.258 172.037 172.399 175.378V82.674C172.399 60.1245 153.415 41.7507 130.031 41.7507C106.646 41.7507 87.6624 60.1245 87.6624 82.7158V203.072C79.745 199.832 73.548 193.71 73.548 185.976V150.991C73.548 135.908 60.8952 123.681 45.3026 123.681C29.71 123.681 17.0571 135.908 17.0571 150.991V198.763C17.0571 213.846 29.4177 225.221 40.8845 231.618C49.6705 236.521 74.2913 242.542 87.654 242.885V267.038C87.654 289.654 172.39 289.654 172.39 267.038V215.516C186.371 214.681 209.747 209.01 218.133 204.325C229.608 197.927 242.996 186.552 242.996 171.469V96.3708C243.004 81.2877 230.359 69.0608 214.759 69.0608Z" fill="#629D00"/>
<path d="M151.219 104.071C155.116 104.071 158.276 100.912 158.276 97.014C158.276 93.1164 155.116 89.9568 151.219 89.9568C147.321 89.9568 144.162 93.1164 144.162 97.014C144.162 100.912 147.321 104.071 151.219 104.071Z" fill="#416900"/>
<path d="M101.794 153.496C105.691 153.496 108.851 150.337 108.851 146.439C108.851 142.542 105.691 139.382 101.794 139.382C97.8959 139.382 94.7363 142.542 94.7363 146.439C94.7363 150.337 97.8959 153.496 101.794 153.496Z" fill="#416900"/>
<path d="M144.153 181.742C148.051 181.742 151.211 178.582 151.211 174.685C151.211 170.787 148.051 167.627 144.153 167.627C140.256 167.627 137.096 170.787 137.096 174.685C137.096 178.582 140.256 181.742 144.153 181.742Z" fill="#416900"/>
<path d="M94.7281 224.11C98.6257 224.11 101.785 220.95 101.785 217.053C101.785 213.155 98.6257 209.996 94.7281 209.996C90.8305 209.996 87.6709 213.155 87.6709 217.053C87.6709 220.95 90.8305 224.11 94.7281 224.11Z" fill="#416900"/>
<path d="M38.2454 231.167C42.143 231.167 45.3026 228.008 45.3026 224.11C45.3026 220.212 42.143 217.053 38.2454 217.053C34.3478 217.053 31.1882 220.212 31.1882 224.11C31.1882 228.008 34.3478 231.167 38.2454 231.167Z" fill="#416900"/>
<path d="M66.4827 181.742C70.3803 181.742 73.5399 178.582 73.5399 174.685C73.5399 170.787 70.3803 167.627 66.4827 167.627C62.5851 167.627 59.4255 170.787 59.4255 174.685C59.4255 178.582 62.5851 181.742 66.4827 181.742Z" fill="#416900"/>
<path d="M17.0572 167.619C20.9548 167.619 24.1144 164.459 24.1144 160.562C24.1144 156.664 20.9548 153.505 17.0572 153.505C13.1596 153.505 10 156.664 10 160.562C10 164.459 13.1596 167.619 17.0572 167.619Z" fill="#416900"/>
<path d="M243.004 97.0138C246.902 97.0138 250.061 93.8542 250.061 89.9566C250.061 86.059 246.902 82.8994 243.004 82.8994C239.106 82.8994 235.947 86.059 235.947 89.9566C235.947 93.8542 239.106 97.0138 243.004 97.0138Z" fill="#416900"/>
<path d="M200.644 118.194C204.542 118.194 207.702 115.034 207.702 111.137C207.702 107.239 204.542 104.079 200.644 104.079C196.747 104.079 193.587 107.239 193.587 111.137C193.587 115.034 196.747 118.194 200.644 118.194Z" fill="#416900"/>
<path d="M228.881 153.496C232.779 153.496 235.939 150.337 235.939 146.439C235.939 142.542 232.779 139.382 228.881 139.382C224.984 139.382 221.824 142.542 221.824 146.439C221.824 150.337 224.984 153.496 228.881 153.496Z" fill="#416900"/>
<path d="M207.701 209.987C211.599 209.987 214.759 206.828 214.759 202.93C214.759 199.032 211.599 195.873 207.701 195.873C203.804 195.873 200.644 199.032 200.644 202.93C200.644 206.828 203.804 209.987 207.701 209.987Z" fill="#416900"/>
<path d="M158.276 252.356C162.174 252.356 165.333 249.196 165.333 245.298C165.333 241.401 162.174 238.241 158.276 238.241C154.378 238.241 151.219 241.401 151.219 245.298C151.219 249.196 154.378 252.356 158.276 252.356Z" fill="#416900"/>
<path d="M185.703 97.1392L167.789 102.067C171.948 102.547 176.019 103.61 179.882 105.224C187.527 107.841 195.76 108.229 203.617 106.343C198.489 101.855 192.338 98.6943 185.703 97.1392Z" fill="#FF2144"/>
<path d="M131.743 39.6043H131.25C80.5134 39.5375 86.986 97.373 86.986 97.373C99.7307 107.278 126.523 98.5673 131.601 96.78C166.252 81.2542 181.243 89.7813 181.243 89.7813C179.882 74.1636 172.349 39.8799 131.743 39.6043Z" fill="#E10037"/>
<path d="M128.435 41.1744L127.283 39.8047C117.378 48.1146 111.765 61.185 111.047 77.5961C110.727 85.1274 111.369 92.6687 112.96 100.037L114.697 99.6112C114.597 99.227 105.393 60.5252 128.435 41.1744Z" fill="#FF2144"/>
<path d="M152.488 47.8057C147.4 43.7705 141.504 40.8741 135.2 39.312L134.85 41.0659C140.899 42.6029 146.556 45.3975 151.453 49.2672C159.136 55.2471 168.632 67.1649 169.885 87.6099L171.672 87.5013C170.378 66.3548 160.489 54.011 152.488 47.8057Z" fill="#FF2144"/>
<path d="M158.426 87.9607C147.235 89.9735 104.015 102.067 104.015 102.067C104.015 102.067 115.215 119.981 136.703 120.207C136.703 120.207 144.32 121.326 157.307 109.901C157.307 109.901 183.247 91.41 200.736 103.929L180.825 88.6289C180.825 88.6289 169.584 85.948 158.426 87.9607ZM200.728 103.929L202.089 104.981C201.605 104.606 201.145 104.263 200.686 103.929H200.728Z" fill="#E10037"/>
<path d="M130.866 34.0003C130.139 33.9926 129.417 34.1282 128.742 34.3993C128.067 34.6705 127.453 35.0719 126.933 35.5807C126.413 36.0894 125.999 36.6956 125.714 37.3644C125.428 38.0333 125.278 38.7519 125.27 39.479C125.27 42.5107 136.47 42.5107 136.47 39.479C136.452 38.0097 135.852 36.6074 134.801 35.5802C133.75 34.5529 132.335 33.9847 130.866 34.0003Z" fill="#FF2144"/>
<path d="M153.415 149.337C155.633 149.344 157.829 148.912 159.879 148.067C161.929 147.221 163.791 145.979 165.359 144.411C166.927 142.843 168.169 140.98 169.015 138.931C169.86 136.881 170.292 134.684 170.286 132.467C170.252 130.036 169.732 127.636 168.757 125.41C163.921 123.303 158.69 122.255 153.415 122.336C148.147 122.327 142.931 123.372 138.073 125.41C137.079 127.631 136.556 130.033 136.536 132.467C136.531 134.684 136.964 136.881 137.81 138.931C138.657 140.981 139.9 142.843 141.468 144.411C143.037 145.979 144.9 147.221 146.95 148.067C149 148.912 151.198 149.344 153.415 149.337Z" fill="white"/>
<path d="M154.2 122.336C153.405 123.46 152.976 124.802 152.973 126.178C153.035 127.967 153.789 129.662 155.077 130.906C156.365 132.15 158.085 132.845 159.875 132.845C161.666 132.845 163.386 132.15 164.674 130.906C165.961 129.662 166.716 127.967 166.778 126.178C166.778 125.56 166.619 125.101 166.619 124.641C162.649 123.143 158.444 122.363 154.2 122.336Z" fill="black"/>
<path d="M112.016 149.337C114.233 149.344 116.43 148.912 118.48 148.067C120.53 147.221 122.392 145.979 123.96 144.411C125.528 142.843 126.77 140.981 127.616 138.931C128.461 136.881 128.893 134.684 128.886 132.467C128.854 130.035 128.331 127.635 127.35 125.41C122.517 123.302 117.288 122.254 112.016 122.336C106.748 122.327 101.532 123.372 96.674 125.41C95.6798 127.631 95.1565 130.034 95.1373 132.467C95.1317 134.685 95.5646 136.881 96.411 138.931C97.2574 140.981 98.5006 142.844 100.069 144.411C101.638 145.979 103.501 147.221 105.551 148.067C107.601 148.912 109.798 149.344 112.016 149.337Z" fill="white"/>
<path d="M112.784 122.336C111.989 123.46 111.56 124.802 111.557 126.178C111.619 127.967 112.373 129.662 113.661 130.906C114.949 132.15 116.669 132.845 118.459 132.845C120.25 132.845 121.97 132.15 123.258 130.906C124.545 129.662 125.3 127.967 125.362 126.178C125.362 125.56 125.203 125.101 125.203 124.641C121.233 123.144 117.028 122.364 112.784 122.336Z" fill="black"/>
<path d="M145.899 160.537C141.758 158.645 137.259 157.665 132.707 157.665C128.155 157.665 123.656 158.645 119.516 160.537C117.369 161.606 119.975 166.976 121.971 165.907C125.318 164.381 128.954 163.592 132.632 163.592C136.31 163.592 139.946 164.381 143.293 165.907C145.439 166.826 148.045 161.606 145.899 160.537Z" fill="black"/>
</g>
<defs>
<clipPath id="clip0_295_104">
<rect width="250" height="250" rx="125" fill="white"/>
</clipPath>
</defs>
</svg>
