<svg width="250" height="250" viewBox="0 0 250 250" fill="none" xmlns="http://www.w3.org/2000/svg">
<g clip-path="url(#clip0_97_565)">
<rect width="250" height="250" rx="125" fill="white"/>
<path d="M126.193 128.48C126.193 128.48 84.0764 77.4399 128.098 30C128.098 30 169.364 79.6363 126.193 128.48Z" fill="#629D00"/>
<path d="M167.785 133.534C167.785 133.534 167.785 97.898 205 83.3525C205 83.3525 179.109 67.1707 151.604 91.447C124.098 115.723 138.658 159.454 138.658 159.454L167.785 133.534Z" fill="#629D00"/>
<path d="M149.727 120.131C149.727 120.131 149.727 79.3452 192.367 62.6762C192.367 62.6762 162.709 44.1307 131.189 71.9416C99.6688 99.7525 116.352 149.811 116.352 149.811L149.727 120.131Z" fill="#416900"/>
<path d="M82.2145 133.534C82.2145 133.534 82.2145 97.898 45 83.3525C45 83.3525 70.8836 67.1707 98.3963 91.447C125.909 115.723 111.342 159.454 111.342 159.454L82.2145 133.534Z" fill="#629D00"/>
<path d="M100.273 120.131C100.273 120.131 100.273 79.3452 57.6328 62.6762C57.6328 62.6762 87.291 44.1307 118.811 71.9416C150.331 99.7525 133.64 149.811 133.64 149.811L100.273 120.131Z" fill="#416900"/>
<path d="M184.738 206.865C184.736 222.546 178.506 237.583 167.417 248.67C156.329 259.757 141.291 265.985 125.611 265.985H124.513C116.747 265.988 109.056 264.461 101.881 261.491C94.7048 258.522 88.1845 254.168 82.6918 248.678C77.1991 243.188 72.8417 236.669 69.8685 229.495C66.8953 222.321 65.3645 214.631 65.3635 206.865V170.662C65.3635 162.897 66.8929 155.209 69.8645 148.036C72.836 140.863 77.1914 134.345 82.6819 128.855C88.1725 123.365 94.6907 119.011 101.864 116.04C109.038 113.069 116.726 111.541 124.491 111.542H125.589C133.353 111.541 141.042 113.069 148.215 116.04C155.389 119.011 161.907 123.365 167.398 128.855C172.888 134.345 177.244 140.863 180.215 148.036C183.187 155.209 184.716 162.897 184.716 170.662L184.738 206.865Z" fill="#FFD700"/>
<path d="M75.909 157.935H65.3271V171.833H75.909V157.935Z" fill="#FF547E"/>
<path d="M184.673 157.935H174.091V171.833H184.673V157.935Z" fill="#FF547E"/>
<path d="M125 176.429C128.73 176.43 132.372 177.558 135.45 179.664C138.528 181.77 140.899 184.757 142.251 188.233C143.341 185.428 143.732 182.399 143.388 179.409C143.043 176.419 141.976 173.558 140.276 171.074C138.577 168.59 136.298 166.558 133.636 165.154C130.974 163.75 128.009 163.016 125 163.016C121.99 163.016 119.026 163.75 116.364 165.154C113.702 166.558 111.423 168.59 109.723 171.074C108.024 173.558 106.956 176.419 106.612 179.409C106.268 182.399 106.658 185.428 107.749 188.233C109.101 184.757 111.471 181.77 114.55 179.664C117.628 177.558 121.27 176.43 125 176.429Z" fill="#FF547E"/>
<path d="M125 163.025V176.429C128.73 176.43 132.372 177.558 135.45 179.664C138.528 181.77 140.899 184.757 142.251 188.233C143.341 185.428 143.732 182.4 143.387 179.411C143.043 176.421 141.975 173.561 140.276 171.078C138.576 168.595 136.297 166.563 133.635 165.16C130.973 163.757 128.009 163.024 125 163.025Z" fill="#FF547E"/>
<path d="M91.8218 198.378C87.814 196.456 84.0022 194.149 80.44 191.491C71.8509 185.018 67.4946 177.992 67.4873 170.625C67.4887 167.385 68.3117 164.198 69.8793 161.362C71.4469 158.527 73.7079 156.135 76.451 154.41C79.1941 152.685 82.3297 151.684 85.5647 151.501C88.7997 151.317 92.0284 151.957 94.9491 153.36C97.8628 152.021 101.066 151.436 104.265 151.658C107.463 151.879 110.555 152.9 113.257 154.627C115.958 156.355 118.183 158.732 119.726 161.543C121.27 164.353 122.083 167.506 122.091 170.712C122.091 178.022 117.785 185.003 109.269 191.476C105.743 194.129 101.968 196.433 97.9964 198.356L94.9055 199.811L91.8218 198.378Z" fill="#FF547E"/>
<path d="M114.709 170.72C114.704 168.424 114.027 166.18 112.761 164.265C111.494 162.35 109.694 160.848 107.583 159.945C105.472 159.042 103.143 158.777 100.883 159.184C98.6236 159.59 96.5327 160.65 94.869 162.233C93.2161 160.613 91.1219 159.517 88.8489 159.083C86.5758 158.649 84.2252 158.896 82.0917 159.792C79.9582 160.688 78.1367 162.194 76.8557 164.122C75.5748 166.049 74.8912 168.311 74.8909 170.625C74.8909 182.509 94.9054 191.658 94.9054 191.658C94.9054 191.658 114.724 182.458 114.709 170.72Z" fill="#D7F5FB"/>
<path d="M158.178 198.378C162.186 196.456 165.998 194.149 169.56 191.491C178.149 185.018 182.505 177.992 182.513 170.625C182.511 167.385 181.688 164.198 180.121 161.362C178.553 158.527 176.292 156.135 173.549 154.41C170.806 152.685 167.67 151.684 164.435 151.501C161.2 151.317 157.972 151.957 155.051 153.36C152.137 152.021 148.934 151.436 145.735 151.658C142.537 151.879 139.445 152.9 136.743 154.627C134.042 156.355 131.817 158.732 130.274 161.543C128.73 164.353 127.917 167.506 127.909 170.712C127.909 178.022 132.215 185.003 140.731 191.476C144.257 194.129 148.032 196.433 152.004 198.356L155.095 199.811L158.178 198.378Z" fill="#FF547E"/>
<path d="M135.291 170.72C135.295 168.424 135.973 166.18 137.239 164.265C138.506 162.35 140.306 160.848 142.417 159.945C144.528 159.042 146.857 158.777 149.116 159.184C151.376 159.59 153.467 160.65 155.131 162.233C156.784 160.613 158.878 159.517 161.151 159.083C163.424 158.649 165.775 158.896 167.908 159.792C170.042 160.688 171.863 162.194 173.144 164.122C174.425 166.049 175.109 168.311 175.109 170.625C175.109 182.509 155.094 191.658 155.094 191.658C155.094 191.658 135.276 182.458 135.291 170.72Z" fill="#D7F5FB"/>
<path d="M126.825 226.363C129.624 226.361 132.402 225.886 135.043 224.96C140.643 223.003 145.494 229.323 142.243 234.269C138.854 239.36 133.582 240.814 126.825 240.814C120.069 240.814 114.818 239.454 111.414 234.291C108.156 229.338 113.014 223.032 118.614 224.981C121.253 225.904 124.03 226.371 126.825 226.363Z" fill="black"/>
<path d="M154.511 223.153C155.891 223.153 157.011 222.033 157.011 220.653C157.011 219.272 155.891 218.153 154.511 218.153C153.13 218.153 152.011 219.272 152.011 220.653C152.011 222.033 153.13 223.153 154.511 223.153Z" fill="black"/>
<path d="M87.5964 204.32C83.0073 204.32 79.2837 207.353 79.2837 211.098H95.9091C95.9091 207.353 92.1855 204.32 87.5964 204.32Z" fill="#F38FA2"/>
<path d="M160.098 203.411C155.509 203.411 151.785 206.444 151.785 210.189H168.411C168.411 206.444 164.694 203.411 160.098 203.411Z" fill="#F38FA2"/>
</g>
<defs>
<clipPath id="clip0_97_565">
<rect width="250" height="250" rx="125" fill="white"/>
</clipPath>
</defs>
</svg>
