<svg width="250" height="250" viewBox="0 0 250 250" fill="none" xmlns="http://www.w3.org/2000/svg">
<g clip-path="url(#clip0_90_119)">
<rect width="250" height="250" rx="125" fill="white"/>
<path d="M196.993 221.575C196.993 223.342 196.993 225.093 196.946 226.844C196.852 231.636 196.626 236.389 196.297 241.119C195.677 249.588 194.676 257.95 193.295 266.206C188.964 270.029 184.696 286 176.018 286H107.966C90.9624 286 61.06 278.128 56.7525 266.612C55.5642 259.561 54.6548 252.423 54.0241 245.2C53.6802 241.213 53.4144 237.195 53.2424 233.168C53.0808 229.479 53 225.776 53 222.06V221.591C52.9867 194.836 56.9384 168.228 64.7265 142.632C67.2229 134.445 70.0894 126.411 73.3259 118.531C85.776 88.3064 103.244 60.4033 124.993 36C139.867 52.7186 152.787 71.0783 163.502 90.7234C165.722 94.7938 167.836 98.9241 169.842 103.114C170.999 105.512 172.122 107.927 173.212 110.361C184.11 134.685 191.377 160.477 194.781 186.912C195.474 192.321 195.995 197.775 196.344 203.274C196.771 209.346 196.988 215.446 196.993 221.575Z" fill="#EF8D43"/>
<path d="M196.375 201.382C196.375 201.382 136.18 178.609 54.0242 242.456C53.6802 238.552 53.4196 234.62 53.2424 230.659C53.086 227.042 53.0053 223.394 53 219.714V219.261C52.9851 192.994 56.9386 166.875 64.7265 141.788C64.7265 141.788 116.252 145.533 173.204 110.268C184.09 134.071 191.362 159.366 194.781 185.317C195.479 190.638 196.011 195.993 196.375 201.382Z" fill="#37CDEB"/>
<path d="M118.418 203.352C115.693 203.357 112.978 203.042 110.327 202.414C109.559 202.232 108.896 201.754 108.482 201.083C108.067 200.412 107.937 199.604 108.118 198.837C108.3 198.07 108.778 197.407 109.449 196.992C110.12 196.578 110.928 196.447 111.695 196.629C122.991 199.295 135.093 195.018 141.793 186.036C142.273 185.444 142.963 185.06 143.72 184.964C144.476 184.868 145.241 185.067 145.854 185.52C146.467 185.973 146.882 186.645 147.012 187.397C147.143 188.148 146.978 188.921 146.554 189.554C143.248 193.873 138.987 197.366 134.103 199.761C129.22 202.155 123.848 203.384 118.41 203.352H118.418Z" fill="black"/>
<path d="M155.083 142.32C159.4 142.32 162.9 138.82 162.9 134.502C162.9 130.185 159.4 126.685 155.083 126.685C150.765 126.685 147.265 130.185 147.265 134.502C147.265 138.82 150.765 142.32 155.083 142.32Z" fill="black"/>
<path d="M95.6687 142.32C99.9863 142.32 103.486 138.82 103.486 134.502C103.486 130.185 99.9863 126.685 95.6687 126.685C91.3511 126.685 87.8511 130.185 87.8511 134.502C87.8511 138.82 91.3511 142.32 95.6687 142.32Z" fill="black"/>
<path d="M158.585 80.8655C161.025 80.8604 163.396 81.6754 165.317 83.1796C167.238 84.6839 168.598 86.7901 169.178 89.16L185.251 153.812L181.162 153.405L165.433 90.0825C165.055 88.5532 164.175 87.195 162.933 86.2255C161.691 85.256 160.16 84.7312 158.585 84.7352C158.073 84.7352 157.582 84.5318 157.22 84.1697C156.857 83.8075 156.654 83.3164 156.654 82.8043C156.654 82.2922 156.857 81.801 157.22 81.4389C157.582 81.0768 158.073 80.8733 158.585 80.8733V80.8655Z" fill="#BAFF4B"/>
<path d="M181.366 149.973H176.91L176.738 150.051L177.457 159.104H181.366C182.402 159.104 183.396 158.692 184.13 157.959C184.863 157.226 185.274 156.232 185.274 155.195V153.835C185.262 152.807 184.845 151.824 184.113 151.101C183.381 150.378 182.394 149.973 181.366 149.973Z" fill="#BAFF4B"/>
<path d="M94.6444 80.8655C92.2049 80.8617 89.8347 81.6773 87.9139 83.1813C85.9931 84.6853 84.633 86.7907 84.0516 89.16L67.9863 153.812L72.0671 153.405L87.804 90.0825C88.1818 88.5545 89.061 87.1973 90.3011 86.2279C91.5411 85.2585 93.0704 84.7329 94.6444 84.7352C95.1566 84.7352 95.6477 84.5318 96.0098 84.1697C96.372 83.8075 96.5754 83.3164 96.5754 82.8043C96.5754 82.2921 96.372 81.801 96.0098 81.4389C95.6477 81.0767 95.1566 80.8733 94.6444 80.8733V80.8655Z" fill="#BAFF4B"/>
<path d="M76.3199 149.973H71.8717C70.835 149.973 69.8408 150.385 69.1078 151.118C68.3747 151.851 67.9629 152.845 67.9629 153.882V155.242C67.9629 156.279 68.3747 157.273 69.1078 158.006C69.8408 158.739 70.835 159.151 71.8717 159.151H75.7805L76.4997 150.098L76.3199 149.973Z" fill="#BAFF4B"/>
<path d="M172.469 142.32C167.455 139.098 161.621 137.385 155.661 137.385C149.701 137.385 143.867 139.098 138.853 142.32C135.249 144.853 132.888 148.066 131.966 151.584C130.288 150.771 128.448 150.348 126.583 150.348C124.719 150.348 122.879 150.771 121.201 151.584C120.279 148.066 117.918 144.853 114.321 142.32C109.364 139.015 103.518 137.297 97.5605 137.395C91.5925 137.291 85.7348 139.009 80.7682 142.32C76.0777 145.642 73.4509 150.137 73.4509 154.945C73.4891 161.235 75.9842 167.262 80.4037 171.738C84.8232 176.214 90.8172 178.786 97.1065 178.904C103.396 179.023 109.482 176.678 114.067 172.371C118.652 168.065 121.372 162.136 121.647 155.852C123.084 154.786 124.826 154.211 126.615 154.211C128.404 154.211 130.146 154.786 131.583 155.852C131.858 162.136 134.578 168.065 139.162 172.371C143.747 176.678 149.834 179.023 156.123 178.904C162.412 178.786 168.406 176.214 172.826 171.738C177.245 167.262 179.74 161.235 179.779 154.945C179.779 150.137 177.183 145.642 172.469 142.32Z" fill="#BAFF4B"/>
<path d="M155.677 175.154C150.309 175.15 145.163 173.016 141.367 169.222C137.571 165.427 135.435 160.281 135.429 154.914C135.429 147.37 144.513 141.225 155.677 141.225C166.84 141.225 175.916 147.37 175.916 154.914C175.91 160.28 173.776 165.425 169.981 169.219C166.187 173.013 161.043 175.148 155.677 175.154Z" fill="#534747"/>
<path d="M97.5606 175.154C92.194 175.15 87.0483 173.016 83.2535 169.221C79.4587 165.426 77.3249 160.281 77.3208 154.914C77.3208 147.37 86.3971 141.225 97.5606 141.225C108.724 141.225 117.8 147.37 117.8 154.914C117.794 160.28 115.66 165.425 111.866 169.219C108.071 173.013 102.927 175.148 97.5606 175.154Z" fill="#534747"/>
<path d="M82.1598 93.0062C83.7702 92.6857 85.5448 92.2245 87.3898 91.7867C88.7558 89.8402 90.3285 88.0474 92.0804 86.4394C77.3989 79.8179 69.4171 76.1749 67.1109 77.2615C66.2741 77.6418 65.4866 78.1222 64.7656 78.6921C63.6086 79.6303 62.4828 83.7736 64.8125 86.7599C65.678 87.8437 66.6381 88.8483 67.6815 89.7619C70.3552 92.1619 75.8432 93.5066 80.0959 93.6082C80.7663 93.3514 81.4565 93.15 82.1598 93.0062Z" fill="#FF2144"/>
<path d="M80.4086 93.4517C78.9702 93.8035 77.5708 94.124 76.2575 94.382C74.1076 94.8041 71.3871 96.1957 70.3786 97.7592C68.2913 100.988 67.8066 103.443 69.1669 104.998C70.0603 105.87 71.218 106.42 72.4581 106.562H72.6848C74.4282 106.562 78.1572 103.435 84.7631 97.8764C83.2206 96.6575 81.8085 95.282 80.5494 93.7722C80.4634 93.6862 80.4712 93.5611 80.4086 93.4517Z" fill="#FF2144"/>
<path d="M167.349 84.5162C158.64 74.5409 143.528 69.0764 126.236 69.0764C108.943 69.0764 93.8316 74.5488 85.1228 84.5162C84.2706 85.5136 83.4746 86.5575 82.7384 87.6433C82.0922 88.5921 81.4947 89.5732 80.9481 90.5827C80.6667 91.1221 80.4087 91.6694 80.1664 92.2322C79.9866 92.6388 79.7833 93.014 79.6113 93.4518C79.6351 93.4865 79.656 93.5231 79.6739 93.5612C79.7003 93.6039 79.7238 93.6483 79.7442 93.6941C80.3762 94.9 81.1084 96.0507 81.9332 97.1339C82.1521 97.4153 82.3475 97.7124 82.5742 97.986C82.8009 98.2596 83.0355 98.5098 83.27 98.7678C84.4242 100.072 85.6874 101.275 87.0459 102.364C87.5697 101.848 88.1482 101.387 88.711 100.902C89.0394 100.621 89.3443 100.323 89.6804 100.058C90.0166 99.7919 90.3997 99.5026 90.7593 99.2212C92.0331 98.2748 93.359 97.4004 94.7306 96.6023C96.7785 95.4068 98.9105 94.3617 101.11 93.4752C101.892 93.1703 102.673 92.9436 103.455 92.6935C110.781 90.198 118.473 88.9506 126.212 89.0036C133.954 88.9506 141.649 90.198 148.977 92.6935C149.759 92.9671 150.595 93.1938 151.322 93.4752C153.524 94.3568 155.656 95.4021 157.702 96.6023C159.072 97.4032 160.397 98.2775 161.673 99.2212C162.033 99.5026 162.4 99.7763 162.744 100.058C163.088 100.339 163.393 100.628 163.721 100.91C164.276 101.394 164.863 101.856 165.386 102.364C168.497 99.9812 171.039 96.9371 172.829 93.4518C171.513 90.1885 169.661 87.1683 167.349 84.5162ZM126.236 83.6328C124.055 83.6328 122.28 81.2876 122.28 78.4185C122.28 75.5494 124.055 73.2119 126.236 73.2119C128.417 73.2119 130.191 75.5572 130.191 78.4185C130.191 81.2797 128.417 83.6328 126.236 83.6328Z" fill="#FF2144"/>
</g>
<defs>
<clipPath id="clip0_90_119">
<rect width="250" height="250" rx="125" fill="white"/>
</clipPath>
</defs>
</svg>
