<svg width="250" height="250" viewBox="0 0 250 250" fill="none" xmlns="http://www.w3.org/2000/svg">
<g clip-path="url(#clip0_87_85)">
<rect width="250" height="250" rx="125" fill="white"/>
<path d="M186.607 92.1317C184.219 94.5166 181.503 96.5483 178.541 98.1655L130.715 50.3524C133.136 45.9196 136.482 42.059 140.526 39.032C144.569 36.005 149.216 33.8822 154.152 32.8074C159.087 31.7326 164.196 31.7309 169.132 32.8024C174.068 33.8739 178.716 35.9936 182.762 39.0179C186.808 42.0423 190.156 45.9006 192.581 50.3318C195.005 54.7629 196.45 59.6633 196.815 64.7011C197.181 69.739 196.46 74.7966 194.701 79.5316C192.942 84.2665 190.187 88.5682 186.62 92.1454L186.607 92.1317Z" fill="#FFE766"/>
<path d="M181.323 86.8479C178.914 89.2679 176.081 91.2252 172.965 92.6225L136.292 55.9156C137.948 52.1894 140.405 48.8735 143.487 46.2034C146.57 43.5334 150.202 41.5746 154.126 40.4662C158.051 39.3577 162.171 39.1268 166.195 39.7898C170.219 40.4528 174.047 41.9934 177.408 44.3023C180.77 46.6113 183.582 49.6318 185.644 53.1496C187.707 56.6674 188.97 60.5962 189.344 64.657C189.717 68.7178 189.192 72.8111 187.806 76.6462C186.42 80.4814 184.207 83.9643 181.323 86.8479Z" fill="#FFEF99"/>
<path d="M81.1016 106.831C81.1016 154.105 69.6818 168.429 69.6818 188.487C69.6818 206.807 76.8609 230.301 111.591 234.228H132.787C167.517 230.301 174.676 206.807 174.676 188.487C174.676 168.429 163.215 154.105 163.215 106.831C163.215 83.6026 173.401 61.2811 175.323 61.1516H69C70.9226 61.2607 81.1016 85.7297 81.1016 106.831Z" fill="#D7F5FB"/>
<path d="M131.185 153.035H113.166V261.881H131.185V153.035Z" fill="#D7F5FB"/>
<path d="M163.269 181.574C162.483 176.913 161.464 172.293 160.215 167.734C157.733 158.503 155.814 149.129 154.467 139.665C153.011 128.78 152.307 117.807 152.361 106.824C152.361 103.715 152.422 100.688 152.517 97.77H91.8392C91.9347 100.702 91.996 103.715 91.996 106.824C92.0432 117.807 91.337 128.779 89.8825 139.665C88.5309 149.127 86.6093 158.498 84.1283 167.727C82.8261 172.861 81.708 177.272 81.074 181.567C80.7179 183.855 80.5333 186.166 80.5217 188.481C80.5217 212.343 94.1573 223.933 122.172 223.933C150.186 223.933 163.821 212.343 163.821 188.481C163.809 186.168 163.625 183.859 163.269 181.574Z" fill="#FFD700"/>
<path d="M117.318 131.013C116.979 131.013 116.647 130.925 116.353 130.757C116.059 130.59 115.814 130.349 115.64 130.059C114.782 128.623 113.565 127.434 112.11 126.608C110.654 125.782 109.01 125.348 107.336 125.348C105.663 125.348 104.018 125.782 102.563 126.608C101.107 127.434 99.8908 128.623 99.0322 130.059C98.7524 130.467 98.3278 130.754 97.8446 130.86C97.3613 130.967 96.8556 130.886 96.4299 130.634C96.0041 130.381 95.6903 129.977 95.5519 129.502C95.4135 129.026 95.461 128.516 95.6847 128.075C96.8889 126.058 98.5959 124.388 100.639 123.228C102.682 122.069 104.991 121.459 107.34 121.459C109.689 121.459 111.998 122.069 114.041 123.228C116.083 124.388 117.79 126.058 118.995 128.075C119.125 128.295 119.212 128.539 119.248 128.793C119.285 129.046 119.271 129.304 119.207 129.553C119.144 129.801 119.033 130.034 118.879 130.239C118.726 130.444 118.533 130.617 118.313 130.748C118.011 130.925 117.667 131.017 117.318 131.013Z" fill="black"/>
<path d="M147.677 130.945C147.339 130.947 147.006 130.861 146.712 130.695C146.418 130.529 146.172 130.288 146 129.998C145.14 128.561 143.923 127.372 142.467 126.547C141.011 125.721 139.366 125.288 137.692 125.288C136.019 125.288 134.373 125.721 132.917 126.547C131.461 127.372 130.244 128.561 129.385 129.998C129.119 130.442 128.688 130.762 128.186 130.888C127.684 131.014 127.153 130.935 126.709 130.669C126.265 130.403 125.945 129.972 125.819 129.47C125.693 128.968 125.772 128.437 126.037 127.993C127.242 125.976 128.949 124.306 130.991 123.147C133.034 121.987 135.343 121.377 137.692 121.377C140.041 121.377 142.35 121.987 144.393 123.147C146.436 124.306 148.143 125.976 149.347 127.993C149.612 128.439 149.689 128.972 149.561 129.474C149.433 129.976 149.111 130.407 148.666 130.673C148.366 130.849 148.025 130.943 147.677 130.945Z" fill="black"/>
<path d="M122.861 188.392C122.557 188.322 122.286 188.149 122.094 187.904C121.902 187.658 121.8 187.354 121.805 187.043C121.809 186.731 121.921 186.43 122.12 186.191C122.32 185.951 122.596 185.787 122.901 185.726C123.648 185.739 124.369 185.454 124.907 184.935C125.444 184.416 125.752 183.705 125.765 182.958C125.778 182.211 125.493 181.49 124.974 180.953C124.455 180.416 123.744 180.107 122.997 180.095C122.798 180.132 122.594 180.124 122.399 180.073C122.203 180.021 122.022 179.927 121.868 179.796C121.713 179.666 121.59 179.503 121.506 179.319C121.422 179.136 121.38 178.935 121.383 178.733C121.387 178.531 121.434 178.333 121.524 178.151C121.613 177.97 121.742 177.811 121.9 177.686C122.058 177.56 122.242 177.471 122.439 177.426C122.636 177.38 122.84 177.379 123.038 177.422C123.418 177.446 123.799 177.393 124.157 177.266C124.516 177.138 124.845 176.939 125.125 176.681C125.405 176.423 125.63 176.111 125.785 175.763C125.941 175.416 126.024 175.04 126.031 174.66C126.037 174.279 125.967 173.901 125.823 173.549C125.679 173.196 125.465 172.876 125.194 172.609C124.924 172.341 124.601 172.131 124.247 171.992C123.893 171.853 123.514 171.786 123.133 171.797C122.935 171.835 122.73 171.827 122.535 171.775C122.34 171.724 122.158 171.63 122.004 171.499C121.85 171.369 121.726 171.206 121.642 171.022C121.559 170.838 121.517 170.638 121.52 170.436C121.523 170.234 121.571 170.035 121.66 169.854C121.749 169.673 121.878 169.514 122.036 169.388C122.195 169.263 122.379 169.174 122.576 169.129C122.772 169.083 122.977 169.082 123.174 169.125C124.3 169.129 125.397 169.482 126.315 170.135C127.232 170.787 127.925 171.708 128.298 172.77C128.672 173.832 128.708 174.984 128.4 176.067C128.093 177.15 127.458 178.112 126.583 178.82C127.423 179.56 128.015 180.54 128.278 181.628C128.542 182.715 128.464 183.858 128.056 184.9C127.648 185.942 126.93 186.834 125.998 187.454C125.066 188.073 123.966 188.391 122.847 188.365L122.861 188.392Z" fill="black"/>
<path d="M153.957 160.03C153.652 158.729 153.095 157.501 152.316 156.415C151.537 155.33 150.552 154.408 149.416 153.704C148.281 152.999 147.018 152.525 145.7 152.308C144.381 152.092 143.033 152.137 141.732 152.442C139.104 153.058 136.828 154.692 135.405 156.986C133.982 159.28 133.529 162.045 134.144 164.673L138.787 184.492L158.606 179.842C159.907 179.538 161.135 178.981 162.22 178.202C163.306 177.422 164.227 176.437 164.931 175.302C165.635 174.166 166.108 172.903 166.324 171.585C166.54 170.267 166.493 168.919 166.188 167.618C165.572 164.99 163.937 162.714 161.643 161.291C159.35 159.868 156.585 159.415 153.957 160.03Z" fill="#FF2144"/>
</g>
<defs>
<clipPath id="clip0_87_85">
<rect width="250" height="250" rx="125" fill="white"/>
</clipPath>
</defs>
</svg>
