<svg width="36" height="38" viewBox="0 0 36 38" fill="none" xmlns="http://www.w3.org/2000/svg">
<path d="M16.9368 30.6435L10.9289 28.545C9.00095 27.8716 6.86297 28.6132 5.76629 30.336L19.8615 35.2595C20.076 33.2285 18.8647 31.317 16.9368 30.6435Z" fill="#F38FA2"/>
<path d="M31.0447 21.7651C30.5963 23.0487 29.6324 24.0863 28.3862 24.6287L13.3868 31.1553L31.7932 16.751C31.8605 18.4208 31.6191 20.1206 31.0447 21.7651Z" fill="#FF547E"/>
<path d="M31.7933 16.751L13.3869 31.1554L28.3033 8.19205C29.6849 9.71824 30.6819 11.5223 31.2503 13.4521C31.5655 14.5219 31.7489 15.6296 31.7933 16.751Z" fill="#F38FA2"/>
<path d="M28.3034 8.19198L13.3869 31.1553L22.7061 4.47559C24.09 4.95899 25.3967 5.66705 26.5696 6.57997C27.2018 7.07157 27.78 7.61144 28.3034 8.19198Z" fill="#FF547E"/>
<path d="M22.7062 4.47574L13.387 31.1555L16.0122 3.89885C16.7832 3.77034 17.5729 3.70835 18.3738 3.71724C19.8599 3.73317 21.3221 3.99231 22.7062 4.47574Z" fill="#F38FA2"/>
<path d="M16.0123 3.89879L13.3871 31.1554L7.9519 8.42448L7.95228 8.42338C8.68633 7.57388 9.51953 6.8213 10.4323 6.18043C12.0786 5.02416 13.9817 4.23433 16.0123 3.89879Z" fill="#FF547E"/>
<path d="M7.95186 8.42439L13.3871 31.1554L5.71448 16.7094C5.39573 16.1091 5.20937 15.4558 5.15846 14.7922C5.10745 14.1285 5.19295 13.4551 5.41714 12.8133C5.99154 11.1688 6.86054 9.68947 7.95186 8.42439Z" fill="#F38FA2"/>
</svg>
