<svg width="193" height="70" viewBox="0 0 193 70" fill="none" xmlns="http://www.w3.org/2000/svg">
<path d="M2.94901 46.3979H9.89301V52.446H15.045V46.3979H20.805L21.893 41.9499H15.045V36.1259H9.89301V41.9499H4.03701L2.94901 46.3979ZM31.8433 54.174H37.3473V32.2859L25.0273 37.886L25.8913 40.9259L31.8433 39.4219V54.174Z" fill="#E6007D"/>
<path d="M68.5648 36.7708H78.9808V45.8428H86.7088V36.7708H95.3488L96.9808 30.0988H86.7088V21.3628H78.9808V30.0988H70.1968L68.5648 36.7708ZM100.482 46.5148C103.554 48.1948 106.674 49.0588 111.426 49.0588C119.394 49.0588 124.386 44.7388 124.386 38.1148C124.386 32.6908 121.218 29.5228 114.69 29.0428L123.138 21.1228L121.314 16.7548H103.218V22.9948H114.93L106.866 31.2028L109.266 34.4188C109.89 34.1788 110.85 34.0348 111.81 34.0348C114.738 34.0348 116.466 35.3788 116.466 38.0668C116.466 41.1868 113.586 42.6268 110.13 42.6268C107.874 42.6268 105.378 42.1948 102.738 40.8988L100.482 46.5148Z" fill="#BAFF4B"/>
<path d="M152.949 52.9196H159.893V58.9676H165.045V52.9196H170.805L171.893 48.4716H165.045V42.6476H159.893V48.4716H154.037L152.949 52.9196ZM174.515 56.5676H183.891V60.6956H188.531V56.5676H191.027V52.8876L188.531 52.9836V39.2556H184.499L173.875 54.1356L174.515 56.5676ZM178.419 53.4636L183.891 45.3356V53.2396L178.419 53.4636Z" fill="#EF8D43"/>
</svg>
