<svg width="15" height="28" viewBox="0 0 15 28" fill="none" xmlns="http://www.w3.org/2000/svg">
<path d="M13.9946 1.93332C13.9953 2.05666 13.9716 2.17893 13.925 2.29311C13.8784 2.40729 13.8096 2.51115 13.7228 2.59872L3.12337 13.1981C3.03553 13.2853 2.96581 13.3889 2.91823 13.5031C2.87065 13.6173 2.84616 13.7398 2.84616 13.8635C2.84616 13.9872 2.87065 14.1097 2.91823 14.2239C2.96581 14.3381 3.03553 14.4418 3.12337 14.5289L13.7228 25.1096C13.8106 25.1967 13.8803 25.3004 13.9279 25.4146C13.9755 25.5288 14 25.6513 14 25.775C14 25.8987 13.9755 26.0212 13.9279 26.1354C13.8803 26.2496 13.8106 26.3532 13.7228 26.4404C13.5472 26.6149 13.3097 26.7129 13.0621 26.7129C12.8145 26.7129 12.577 26.6149 12.4014 26.4404L1.79259 15.8503C1.2837 15.314 1 14.6029 1 13.8635C1 13.1242 1.2837 12.413 1.79259 11.8767L12.4014 1.26793C12.5329 1.13897 12.6996 1.05165 12.8805 1.01687C13.0614 0.982101 13.2486 1.00142 13.4186 1.07242C13.5886 1.14342 13.7339 1.26295 13.8363 1.41606C13.9388 1.56918 13.9938 1.7491 13.9946 1.93332Z" fill="#E65F28" stroke="#E65F28"/>
</svg>
