<svg width="15" height="28" viewBox="0 0 15 28" fill="none" xmlns="http://www.w3.org/2000/svg">
<path d="M1.00543 2.22043C1.00472 2.34377 1.02836 2.46604 1.075 2.58022C1.12164 2.6944 1.19036 2.79826 1.27722 2.88583L11.8766 13.4852C11.9645 13.5724 12.0342 13.676 12.0818 13.7902C12.1293 13.9044 12.1538 14.0269 12.1538 14.1506C12.1538 14.2743 12.1293 14.3968 12.0818 14.511C12.0342 14.6252 11.9645 14.7289 11.8766 14.816L1.27722 25.3967C1.18937 25.4838 1.11965 25.5875 1.07208 25.7017C1.0245 25.8159 1 25.9384 1 26.0621C1 26.1858 1.0245 26.3083 1.07208 26.4225C1.11965 26.5367 1.18937 26.6404 1.27722 26.7275C1.45281 26.902 1.69033 27 1.93792 27C2.18551 27 2.42304 26.902 2.59863 26.7275L13.2074 16.1374C13.7163 15.6011 14 14.89 14 14.1506C14 13.4113 13.7163 12.7002 13.2074 12.1638L2.59863 1.55504C2.46706 1.42608 2.30041 1.33876 2.11949 1.30398C1.93857 1.26921 1.75142 1.28853 1.58143 1.35953C1.41143 1.43053 1.26613 1.55005 1.16368 1.70317C1.06124 1.85629 1.0062 2.03621 1.00543 2.22043Z" fill="#E65F28" stroke="#E65F28"/>
</svg>
