<svg width="148" height="140" viewBox="0 0 148 140" fill="none" xmlns="http://www.w3.org/2000/svg">
<path d="M50.8573 140L14.0576 113.263L0 70L14.0576 26.7384L50.8573 0H96.3465L133.148 26.7384L147.205 70L133.148 113.263L96.3465 140H50.8573Z" fill="white"/>
<path d="M50.8574 0H96.3465L73.6028 70L50.8574 0Z" fill="#14A8C6"/>
<path d="M0 70.0001L14.0576 26.7385L73.6027 70.0001H0Z" fill="#14A8C6"/>
<path d="M50.8574 140L14.0576 113.263L73.6027 70L50.8574 140Z" fill="#14A8C6"/>
<path d="M133.148 113.263L96.3463 140L73.6025 70L133.148 113.263Z" fill="#14A8C6"/>
<path d="M133.148 26.7385L147.205 70.0001H73.6025L133.148 26.7385Z" fill="#14A8C6"/>
<path d="M73.6021 76.2223C77.0385 76.2223 79.8243 73.4365 79.8243 70.0001C79.8243 66.5636 77.0385 63.7778 73.6021 63.7778C70.1657 63.7778 67.3799 66.5636 67.3799 70.0001C67.3799 73.4365 70.1657 76.2223 73.6021 76.2223Z" fill="#F09F7E"/>
</svg>
