<svg width="152" height="152" viewBox="0 0 152 152" fill="none" xmlns="http://www.w3.org/2000/svg">
<path d="M50.2268 65.5817C49.4127 66.7447 48.6698 68.0186 47.9582 69.2513L47.9227 69.306C44.8846 74.552 42.4832 78.6859 35.2885 75.7974L33.8161 75.3223C33.4183 75.0399 33.0411 74.7389 32.6945 74.4187C23.9463 66.328 31.5494 47.3323 37.9117 39.841C51.2939 24.4074 62.8201 19.2215 72.1433 24.4258C73.7027 25.3724 76.5255 27.4112 79.3623 30.0315C82.7838 33.192 88.498 39.3441 88.3305 45.0073C88.2595 47.4279 87.0923 49.582 84.8667 51.4096C80.3247 55.1374 75.2133 55.771 69.8027 56.4405C62.9972 57.287 55.9713 58.1517 50.2268 65.5817Z" fill="#FFEF99"/>
<path d="M94.0385 40.9492C93.6676 40.6066 93.3638 40.2085 93.1337 39.7783C92.4027 38.3857 92.47 36.6565 93.3237 34.9056C94.2326 33.0487 95.8885 31.4201 97.9944 30.3117C101.543 28.4446 105.509 28.5154 107.644 30.4877C108.014 30.8297 108.314 31.2266 108.549 31.659C110.115 34.6441 107.934 38.889 103.686 41.1264C100.143 42.9928 96.1757 42.9234 94.0385 40.9492Z" fill="#FFEF99"/>
<path d="M89.2003 22.8548C90.9271 21.6727 93.0209 21.5156 94.0691 22.4838C94.1742 22.5809 94.2657 22.6892 94.347 22.8067C95.2364 24.1158 94.3788 26.2557 92.4316 27.5882C90.5713 28.8648 88.1404 28.9103 87.2849 27.6363C86.3961 26.3291 87.2532 24.1875 89.2003 22.8548Z" fill="#FFEF99"/>
<path d="M81.2829 17.5378C81.9011 16.7874 82.6799 16.2607 83.4797 16.057C84.1845 15.8704 84.7832 15.9784 85.266 16.3707C86.1216 17.1684 85.8912 19.0093 84.7624 20.3854C84.1483 21.1395 83.3695 21.6662 82.5697 21.87C81.8821 22.0487 81.2718 21.9559 80.8608 21.6198L80.7874 21.56C79.9109 20.7525 80.131 18.9458 81.2829 17.5378Z" fill="#FFEF99"/>
<path d="M74.8042 11.6868C75.448 11.3865 76.0675 11.3612 76.5526 11.6158C76.6602 11.6764 76.7625 11.7509 76.855 11.8364C77.6725 12.5915 77.7122 14.2481 76.9438 15.6956C76.4146 16.6868 75.5755 17.4425 74.6969 17.7058C74.3492 17.8172 73.8268 17.8884 73.3429 17.6275C73.235 17.574 73.1409 17.4996 73.0473 17.4131C72.2379 16.6655 72.1948 14.9746 72.949 13.5601C73.404 12.7006 74.0658 12.0423 74.8042 11.6868Z" fill="#FFEF99"/>
<path d="M66.1022 11.2531C66.5479 11.037 66.9694 11.0179 67.284 11.1874C67.3646 11.2318 67.4291 11.2751 67.4886 11.3301C68.0572 11.8553 68.0659 13.0744 67.5118 14.1088C67.1764 14.7415 66.6914 15.2323 66.1494 15.4877C65.7083 15.6989 65.2841 15.7196 64.9649 15.5496C64.2427 15.1515 64.1319 13.7665 64.7405 12.6313C65.0767 12.0006 65.5619 11.5063 66.1022 11.2531Z" fill="#FFEF99"/>
<path d="M62.006 138.078C61.6551 137.754 61.3228 137.402 61.0121 137.032L60.3971 135.544C56.9739 128.657 60.9114 125.937 65.94 122.457C67.11 121.651 68.3217 120.807 69.4515 119.871C76.3726 113.59 76.6823 106.514 76.9811 99.6655C77.2196 94.2161 77.445 89.0767 80.8062 84.252C82.4512 81.8893 84.5063 80.555 86.9147 80.2913C92.5465 79.6775 99.1274 84.8887 102.55 88.0498C105.39 90.6739 107.642 93.3137 108.693 94.7683C114.637 103.671 110.385 115.576 96.0607 130.136C89.1003 137.076 70.7592 146.163 62.006 138.078Z" fill="#FFEF99"/>
<path d="M99.8584 59.8848C101.994 61.8573 102.379 65.8054 100.798 69.4925C99.8605 71.68 98.3684 73.4603 96.59 74.5086C94.9113 75.498 93.1931 75.7018 91.747 75.0837C91.2936 74.8873 90.8743 74.6128 90.5075 74.274C88.3721 72.3014 87.9874 68.355 89.5655 64.6717C91.4645 60.256 95.5211 57.7472 98.6207 59.0766C99.0728 59.2714 99.4875 59.5422 99.8584 59.8848Z" fill="#FFEF99"/>
<path d="M108.911 72.7876C109.961 73.7583 109.969 75.8559 108.935 77.6708C107.761 79.7153 105.687 80.7431 104.317 79.9532C104.198 79.8897 104.087 79.8069 103.986 79.7136C102.945 78.7528 102.93 76.604 103.958 74.8201C105.129 72.7707 107.198 71.749 108.575 72.5341C108.683 72.601 108.801 72.6867 108.911 72.7876Z" fill="#FFEF99"/>
<path d="M111.746 81.8949C113.073 80.6187 114.847 80.2919 115.781 81.1475C116.146 81.5377 116.287 82.137 116.163 82.8364C116.024 83.6426 115.561 84.4607 114.86 85.1351C113.548 86.3932 111.77 86.7602 110.895 85.9526L110.827 85.8891C110.454 85.499 110.316 84.8929 110.439 84.1948C110.581 83.3885 111.038 82.572 111.746 81.8949Z" fill="#FFEF99"/>
<path d="M116.091 90.3516C117.464 89.4706 119.117 89.37 119.94 90.1301C120.032 90.2147 120.11 90.3092 120.18 90.4175C120.474 90.8756 120.505 91.5001 120.246 92.1646C119.951 92.93 119.344 93.6388 118.532 94.1579C117.03 95.1239 115.095 95.1052 114.441 94.0912C114.149 93.6261 114.177 93.1 114.256 92.7408C114.454 91.8502 115.14 90.9608 116.091 90.3516Z" fill="#FFEF99"/>
<path d="M118.412 99.628C119.399 98.9931 120.62 98.91 121.188 99.4346C121.249 99.4908 121.302 99.5469 121.343 99.6161C121.538 99.9247 121.55 100.345 121.374 100.803C121.154 101.369 120.707 101.888 120.104 102.273C119.124 102.906 117.9 102.986 117.324 102.454C117.267 102.402 117.219 102.343 117.179 102.282C116.983 101.976 116.97 101.552 117.148 101.097C117.36 100.532 117.808 100.012 118.412 99.628Z" fill="#FFEF99"/>
</svg>
