<svg width="25" height="21" viewBox="0 0 25 21" fill="none" xmlns="http://www.w3.org/2000/svg">
<path d="M24.5995 7.35361C22.3396 2.81792 17.7033 0 12.5 0C7.29521 0 2.66001 2.81221 0.402832 7.33872C0.139258 7.86665 0 8.47856 0 9.10757C0 10.3367 0.549316 11.4841 1.50679 12.2555L7.55918 17.1294L7.14302 18.1698C6.95039 18.6512 7.00913 19.1967 7.2998 19.6258C7.59048 20.0554 8.07534 20.3125 8.59375 20.3125H16.4062C16.9247 20.3125 17.4095 20.0554 17.7002 19.6258C17.9909 19.1967 18.0496 18.6512 17.857 18.1698L17.4408 17.1294L23.4993 12.2505C24.453 11.4822 25 10.3397 25 9.11523C25 8.48999 24.8619 7.88115 24.5995 7.35361ZM9.8835 13.8744C9.73623 14.0007 9.55542 14.0625 9.37539 14.0625C9.15527 14.0625 8.93633 13.9698 8.78184 13.7897L4.09434 8.321C3.81357 7.99331 3.85132 7.50005 4.179 7.21929C4.50591 6.93813 4.99956 6.97627 5.28071 7.30396L9.96821 12.7727C10.2489 13.1004 10.2112 13.5937 9.8835 13.8744ZM13.2812 12.5C13.2812 12.9314 12.9314 13.2812 12.5 13.2812C12.0686 13.2812 11.7188 12.9314 11.7188 12.5V3.125C11.7188 2.69355 12.0686 2.34375 12.5 2.34375C12.9314 2.34375 13.2812 2.69355 13.2812 3.125V12.5ZM20.9057 8.321L16.2182 13.7897C16.0637 13.9698 15.8447 14.0625 15.6246 14.0625C15.4445 14.0625 15.2637 14.0007 15.1165 13.8744C14.7888 13.5937 14.7511 13.1004 15.0318 12.7727L19.7193 7.30396C20.0009 6.97666 20.4945 6.93926 20.821 7.21929C21.1487 7.5001 21.1864 7.99331 20.9057 8.321Z" fill="#E65F28"/>
</svg>
