<svg width="40" height="40" viewBox="0 0 40 40" fill="none" xmlns="http://www.w3.org/2000/svg">
<path d="M20 40C31.0457 40 40 31.0457 40 20C40 8.95431 31.0457 0 20 0C8.95431 0 0 8.95431 0 20C0 31.0457 8.95431 40 20 40Z" fill="white"/>
<path d="M12.5643 31.5152H27.4332C28.6426 31.5152 29.623 30.5349 29.623 29.3255V16.1165H10.3745V29.3255C10.3745 30.5349 11.3549 31.5152 12.5643 31.5152Z" fill="#14A8C6"/>
<path d="M9.29297 20.2474H30.7042V15.8859C30.7042 14.3531 29.4616 13.1104 27.9286 13.1104H12.0685C10.5356 13.1104 9.29297 14.353 9.29297 15.8859V20.2474Z" fill="#25878E"/>
<path d="M14.1057 13.1247C12.8887 12.3228 12.4974 10.7691 13.2319 9.65427C13.9664 8.53948 15.5485 8.2859 16.7656 9.08785C17.9827 9.8898 19.4759 12.01 18.7414 13.1248L14.1057 13.1247Z" fill="#FFD700"/>
<path d="M25.8914 13.1247C27.1085 12.3228 27.4998 10.7691 26.7653 9.65427C26.0308 8.53948 24.4487 8.2859 23.2316 9.08785C22.0145 9.8898 20.5213 12.01 21.2558 13.1248L25.8914 13.1247Z" fill="#FFD700"/>
<path d="M21.1792 13.1102H18.8182C18.4847 13.1102 18.2144 12.8399 18.2144 12.5064V11.9297C18.2144 11.5963 18.4847 11.3259 18.8181 11.3259H21.1791C21.5126 11.3259 21.7829 11.5963 21.7829 11.9298V12.5065C21.7829 12.8399 21.5126 13.1102 21.1792 13.1102Z" fill="#FFEF99"/>
<path d="M21.7829 13.1104H18.2144V31.5154H21.7829V13.1104Z" fill="#FFD700"/>
</svg>
