<svg width="80" height="80" viewBox="0 0 80 80" fill="none" xmlns="http://www.w3.org/2000/svg">
<circle cx="40" cy="40" r="40" fill="white"/>
<path d="M55.6196 42.5918C55.4119 42.2035 55.5163 41.7185 55.862 41.446C57.8776 39.858 57.987 34.4295 54.0977 34.4295H43.9906C42.0121 34.4295 40.7609 32.2996 41.7246 30.5716C42.9087 28.4483 43.7715 26.0913 44.6002 23.45C45.4956 20.5968 43.6968 18.4766 41.6125 18.4766C40.502 18.4766 39.311 19.0771 38.402 20.4893C35.7873 24.5518 33.946 29.2199 31.3825 31.7067C29.357 33.6701 22.4761 37.6764 22.4761 37.9248V54.3931C22.4761 54.8581 22.8326 55.2534 23.2922 55.3237L29.2396 56.2321C29.3724 56.2525 29.5043 56.302 29.6165 56.3757C34.9738 59.894 39.7962 61.5244 43.7344 61.5244C44.7954 61.5244 45.7935 61.406 46.7198 61.1743C51.3303 60.0219 51.6235 57.1891 51.436 55.7182C51.3753 55.2432 51.6761 54.8088 52.1386 54.6854C54.6027 54.0291 54.7164 50.6769 53.9358 49.0516C53.7177 48.5975 53.9271 48.0638 54.3707 47.8253C56.2095 46.8367 56.3454 43.9478 55.6196 42.5918Z" fill="#82D200"/>
</svg>
