<svg width="80" height="80" viewBox="0 0 80 80" fill="none" xmlns="http://www.w3.org/2000/svg">
<circle cx="40" cy="40" r="40" transform="rotate(-180 40 40)" fill="white"/>
<path d="M24.0977 41.4082C24.3054 41.7965 24.201 42.2815 23.8552 42.554C21.8396 44.142 21.7303 49.5705 25.6196 49.5705H35.7267C37.7051 49.5705 38.9564 51.7004 37.9927 53.4284C36.8085 55.5517 35.9458 57.9087 35.117 60.55C34.2217 63.4032 36.0205 65.5234 38.1048 65.5234C39.2153 65.5234 40.4063 64.9229 41.3153 63.5107C43.93 59.4482 45.7713 54.7801 48.3348 52.2933C50.3603 50.3299 57.2412 46.3236 57.2412 46.0752L57.2412 29.6069C57.2412 29.1419 56.8847 28.7466 56.4251 28.6763L50.4777 27.7679C50.3448 27.7475 50.213 27.698 50.1008 27.6243C44.7434 24.106 39.9211 22.4756 35.9829 22.4756C34.9219 22.4756 33.9238 22.594 32.9975 22.8257C28.3869 23.9781 28.0938 26.8109 28.2813 28.2818C28.342 28.7568 28.0412 29.1912 27.5786 29.3146C25.1145 29.9709 25.0009 33.3231 25.7815 34.9484C25.9996 35.4025 25.7902 35.9362 25.3466 36.1747C23.5078 37.1633 23.3719 40.0522 24.0977 41.4082Z" fill="#FF0909"/>
</svg>
