<svg width="183" height="25" viewBox="0 0 183 25" fill="none" xmlns="http://www.w3.org/2000/svg">
<path d="M181.592 9.0506C178.873 3.46821 173.296 0 167.037 0C160.776 0 155.2 3.46118 152.485 9.03227C152.168 9.68203 152 10.4352 152 11.2093C152 12.7221 152.661 14.1343 153.813 15.0837L161.093 21.0824L160.593 22.3628C160.361 22.9553 160.432 23.6267 160.781 24.1549C161.131 24.6835 161.714 25 162.338 25H171.736C172.359 25 172.943 24.6835 173.292 24.1549C173.642 23.6267 173.713 22.9553 173.481 22.3628L172.98 21.0824L180.268 15.0775C181.415 14.132 182.074 12.7258 182.074 11.2187C182.074 10.4492 181.907 9.69988 181.592 9.0506ZM163.889 17.0762C163.712 17.2316 163.495 17.3077 163.278 17.3077C163.013 17.3077 162.75 17.1936 162.564 16.972L156.925 10.2412C156.588 9.83792 156.633 9.23083 157.027 8.88528C157.42 8.53924 158.014 8.58618 158.352 8.98948L163.991 15.7203C164.329 16.1236 164.283 16.7306 163.889 17.0762ZM167.977 15.3846C167.977 15.9156 167.556 16.3462 167.037 16.3462C166.518 16.3462 166.097 15.9156 166.097 15.3846V3.84615C166.097 3.31514 166.518 2.88462 167.037 2.88462C167.556 2.88462 167.977 3.31514 167.977 3.84615V15.3846ZM177.148 10.2412L171.509 16.972C171.324 17.1936 171.06 17.3077 170.795 17.3077C170.579 17.3077 170.361 17.2316 170.184 17.0762C169.79 16.7306 169.745 16.1236 170.082 15.7203L175.721 8.98948C176.06 8.58666 176.654 8.54062 177.046 8.88528C177.441 9.23089 177.486 9.83792 177.148 10.2412Z" fill="#E65F28"/>
<path d="M143.592 9.0506C140.873 3.46821 135.296 0 129.037 0C122.776 0 117.2 3.46118 114.485 9.03227C114.168 9.68203 114 10.4352 114 11.2093C114 12.7221 114.661 14.1343 115.813 15.0837L123.093 21.0824L122.593 22.3628C122.361 22.9553 122.432 23.6267 122.781 24.1549C123.131 24.6835 123.714 25 124.338 25H133.736C134.359 25 134.943 24.6835 135.292 24.1549C135.642 23.6267 135.713 22.9553 135.481 22.3628L134.98 21.0824L142.268 15.0775C143.415 14.132 144.074 12.7258 144.074 11.2187C144.074 10.4492 143.907 9.69988 143.592 9.0506ZM125.889 17.0762C125.712 17.2316 125.495 17.3077 125.278 17.3077C125.013 17.3077 124.75 17.1936 124.564 16.972L118.925 10.2412C118.588 9.83792 118.633 9.23083 119.027 8.88528C119.42 8.53924 120.014 8.58618 120.352 8.98948L125.991 15.7203C126.329 16.1236 126.283 16.7306 125.889 17.0762ZM129.977 15.3846C129.977 15.9156 129.556 16.3462 129.037 16.3462C128.518 16.3462 128.097 15.9156 128.097 15.3846V3.84615C128.097 3.31514 128.518 2.88462 129.037 2.88462C129.556 2.88462 129.977 3.31514 129.977 3.84615V15.3846ZM139.148 10.2412L133.509 16.972C133.324 17.1936 133.06 17.3077 132.795 17.3077C132.579 17.3077 132.361 17.2316 132.184 17.0762C131.79 16.7306 131.745 16.1236 132.082 15.7203L137.721 8.98948C138.06 8.58666 138.654 8.54062 139.046 8.88528C139.441 9.23089 139.486 9.83792 139.148 10.2412Z" fill="#E65F28"/>
<path d="M105.592 9.0506C102.873 3.46821 97.296 0 91.0368 0C84.7757 0 79.1998 3.46118 76.4846 9.03227C76.1675 9.68203 76 10.4352 76 11.2093C76 12.7221 76.6608 14.1343 77.8126 15.0837L85.0932 21.0824L84.5926 22.3628C84.3609 22.9553 84.4316 23.6267 84.7812 24.1549C85.1309 24.6835 85.7142 25 86.3378 25H95.7357C96.3594 25 96.9426 24.6835 97.2923 24.1549C97.6419 23.6267 97.7126 22.9553 97.4809 22.3628L96.9803 21.0824L104.268 15.0775C105.415 14.132 106.074 12.7258 106.074 11.2187C106.074 10.4492 105.907 9.69988 105.592 9.0506ZM87.8893 17.0762C87.7121 17.2316 87.4946 17.3077 87.278 17.3077C87.0133 17.3077 86.7499 17.1936 86.564 16.972L80.9252 10.2412C80.5875 9.83792 80.6329 9.23083 81.0271 8.88528C81.4203 8.53924 82.0142 8.58618 82.3524 8.98948L87.9912 15.7203C88.3288 16.1236 88.2834 16.7306 87.8893 17.0762ZM91.9766 15.3846C91.9766 15.9156 91.5558 16.3462 91.0368 16.3462C90.5178 16.3462 90.097 15.9156 90.097 15.3846V3.84615C90.097 3.31514 90.5178 2.88462 91.0368 2.88462C91.5558 2.88462 91.9766 3.31514 91.9766 3.84615V15.3846ZM101.148 10.2412L95.5095 16.972C95.3236 17.1936 95.0603 17.3077 94.7955 17.3077C94.5789 17.3077 94.3614 17.2316 94.1843 17.0762C93.7901 16.7306 93.7447 16.1236 94.0824 15.7203L99.7212 8.98948C100.06 8.58666 100.654 8.54062 101.046 8.88528C101.441 9.23089 101.486 9.83792 101.148 10.2412Z" fill="#E65F28"/>
<path d="M67.5917 9.0506C64.8733 3.46821 59.296 0 53.0368 0C46.7757 0 41.1998 3.46118 38.4846 9.03227C38.1675 9.68203 38 10.4352 38 11.2093C38 12.7221 38.6608 14.1343 39.8126 15.0837L47.0932 21.0824L46.5926 22.3628C46.3609 22.9553 46.4316 23.6267 46.7812 24.1549C47.1309 24.6835 47.7142 25 48.3378 25H57.7357C58.3594 25 58.9426 24.6835 59.2923 24.1549C59.6419 23.6267 59.7126 22.9553 59.4809 22.3628L58.9803 21.0824L66.2683 15.0775C67.4155 14.132 68.0735 12.7258 68.0735 11.2187C68.0735 10.4492 67.9074 9.69988 67.5917 9.0506ZM49.8893 17.0762C49.7121 17.2316 49.4946 17.3077 49.278 17.3077C49.0133 17.3077 48.7499 17.1936 48.564 16.972L42.9252 10.2412C42.5875 9.83792 42.6329 9.23083 43.0271 8.88528C43.4203 8.53924 44.0142 8.58618 44.3524 8.98948L49.9912 15.7203C50.3288 16.1236 50.2834 16.7306 49.8893 17.0762ZM53.9766 15.3846C53.9766 15.9156 53.5558 16.3462 53.0368 16.3462C52.5178 16.3462 52.097 15.9156 52.097 15.3846V3.84615C52.097 3.31514 52.5178 2.88462 53.0368 2.88462C53.5558 2.88462 53.9766 3.31514 53.9766 3.84615V15.3846ZM63.1483 10.2412L57.5095 16.972C57.3236 17.1936 57.0603 17.3077 56.7955 17.3077C56.5789 17.3077 56.3614 17.2316 56.1843 17.0762C55.7901 16.7306 55.7447 16.1236 56.0824 15.7203L61.7212 8.98948C62.0599 8.58666 62.6536 8.54062 63.0465 8.88528C63.4406 9.23089 63.486 9.83792 63.1483 10.2412Z" fill="#E65F28"/>
<path d="M29.5917 9.0506C26.8733 3.46821 21.296 0 15.0368 0C8.77571 0 3.19983 3.46118 0.484583 9.03227C0.167519 9.68203 0 10.4352 0 11.2093C0 12.7221 0.660795 14.1343 1.81258 15.0837L9.09324 21.0824L8.59263 22.3628C8.36091 22.9553 8.43157 23.6267 8.78123 24.1549C9.1309 24.6835 9.71416 25 10.3378 25H19.7357C20.3594 25 20.9426 24.6835 21.2923 24.1549C21.6419 23.6267 21.7126 22.9553 21.4809 22.3628L20.9803 21.0824L28.2683 15.0775C29.4155 14.132 30.0735 12.7258 30.0735 11.2187C30.0735 10.4492 29.9074 9.69988 29.5917 9.0506ZM11.8893 17.0762C11.7121 17.2316 11.4946 17.3077 11.278 17.3077C11.0133 17.3077 10.7499 17.1936 10.564 16.972L4.92524 10.2412C4.5875 9.83792 4.63291 9.23083 5.02709 8.88528C5.42034 8.53924 6.01417 8.58618 6.35238 8.98948L11.9912 15.7203C12.3288 16.1236 12.2834 16.7306 11.8893 17.0762ZM15.9766 15.3846C15.9766 15.9156 15.5558 16.3462 15.0368 16.3462C14.5178 16.3462 14.097 15.9156 14.097 15.3846V3.84615C14.097 3.31514 14.5178 2.88462 15.0368 2.88462C15.5558 2.88462 15.9766 3.31514 15.9766 3.84615V15.3846ZM25.1483 10.2412L19.5095 16.972C19.3236 17.1936 19.0603 17.3077 18.7955 17.3077C18.5789 17.3077 18.3614 17.2316 18.1843 17.0762C17.7901 16.7306 17.7447 16.1236 18.0824 15.7203L23.7212 8.98948C24.0599 8.58666 24.6536 8.54062 25.0465 8.88528C25.4406 9.23089 25.486 9.83792 25.1483 10.2412Z" fill="#E65F28"/>
</svg>
