<svg width="145" height="165" viewBox="0 0 145 165" fill="none" xmlns="http://www.w3.org/2000/svg">
<path d="M140.779 40.1257L133.733 51.3324L128.524 48.0576L135.571 36.8508L131.663 34.3934L124.616 45.6002L119.407 42.3252L126.454 31.1184L122.546 28.6612L115.499 39.868L110.291 36.593L117.337 25.3862L113.429 22.929L106.383 34.1358L101.174 30.8608L108.221 19.654L104.313 17.1968L97.2662 28.4036L92.0576 25.1286L99.104 13.9218L95.196 11.4646L88.1496 22.6714L82.9409 19.3964L89.9873 8.18961L86.079 5.73221L79.0326 16.939L73.8243 13.6642L80.8707 2.4574L76.9624 0L69.916 11.2068L68.7391 13.0785L8.22349 109.324L7.04677 111.195L0.000183969 122.402L3.90848 124.86L10.9551 113.653L16.1634 116.928L9.11682 128.135L13.0251 130.592L20.0717 119.385L25.2803 122.66L18.2338 133.867L22.1418 136.324L29.1883 125.117L34.397 128.392L27.3504 139.599L31.2584 142.056L38.305 130.849L43.5136 134.124L36.467 145.331L40.375 147.789L47.4216 136.582L52.6303 139.857L45.5837 151.064L49.4917 153.521L56.5382 142.314L61.7469 145.589L54.7003 156.796L58.6086 159.253L65.6552 148.046L70.8635 151.321L63.8169 162.528L67.7252 164.986L74.7718 153.778L75.9485 151.907L136.464 55.6616L137.641 53.7898L144.687 42.5831L140.779 40.1257Z" fill="#E65F28"/>
<path d="M125.376 73.2958L57.6523 30.7139L44.8199 51.123L112.543 93.7049L125.376 73.2958Z" fill="#FFC6D4"/>
<path d="M99.8658 113.867L32.1426 71.2854L19.3101 91.6945L87.0333 134.276L99.8658 113.867Z" fill="#FFC6D4"/>
</svg>
